<svg width="340" height="308" viewBox="0 0 340 308" fill="none" xmlns="http://www.w3.org/2000/svg">
<path d="M340 256.123H0V256.29H340V256.123Z" fill="#EBEBEB"/>
<path d="M305.932 266.9H283.41V267.067H305.932V266.9Z" fill="#EBEBEB"/>
<path d="M225.229 268.721H198.56V268.889H225.229V268.721Z" fill="#EBEBEB"/>
<path d="M282.73 260.684H243.957V260.852H282.73V260.684Z" fill="#EBEBEB"/>
<path d="M165.315 261.809H118.646V261.977H165.315V261.809Z" fill="#EBEBEB"/>
<path d="M175.671 261.809H171.367V261.977H175.671V261.809Z" fill="#EBEBEB"/>
<path d="M153.095 264.636H66.8645V264.803H153.095V264.636Z" fill="#EBEBEB"/>
<path d="M161.16 226.251H29.8589C28.8303 226.249 27.8444 225.845 27.1178 225.128C26.3911 224.411 25.9829 223.44 25.9829 222.426V40.6287C25.9919 39.6214 26.404 38.6582 27.1297 37.9484C27.8554 37.2386 28.8362 36.8395 29.8589 36.8378H161.16C162.19 36.8378 163.177 37.2407 163.906 37.9579C164.634 38.6751 165.043 39.6479 165.043 40.6622V222.426C165.043 223.441 164.634 224.414 163.906 225.131C163.177 225.848 162.19 226.251 161.16 226.251ZM29.8589 36.9717C28.8754 36.9735 27.9328 37.3596 27.238 38.0452C26.5431 38.7308 26.1529 39.66 26.1529 40.6287V222.426C26.1529 223.395 26.5431 224.324 27.238 225.01C27.9328 225.696 28.8754 226.082 29.8589 226.083H161.16C162.144 226.082 163.088 225.696 163.783 225.01C164.479 224.325 164.871 223.396 164.873 222.426V40.6287C164.871 39.6594 164.479 38.7302 163.783 38.0448C163.088 37.3594 162.144 36.9735 161.16 36.9717H29.8589Z" fill="#EBEBEB"/>
<path d="M308.251 226.251H176.943C175.914 226.249 174.927 225.846 174.199 225.129C173.472 224.412 173.062 223.44 173.06 222.426V40.6287C173.071 39.6208 173.484 38.6576 174.211 37.948C174.938 37.2384 175.919 36.8395 176.943 36.8378H308.251C309.272 36.8413 310.251 37.2411 310.976 37.9508C311.7 38.6604 312.111 39.6225 312.12 40.6287V222.426C312.12 223.438 311.713 224.409 310.988 225.126C310.262 225.843 309.278 226.247 308.251 226.251ZM176.943 36.9717C175.959 36.9735 175.015 37.3594 174.319 38.0448C173.624 38.7302 173.232 39.6594 173.23 40.6287V222.426C173.232 223.396 173.624 224.325 174.319 225.01C175.015 225.696 175.959 226.082 176.943 226.083H308.251C309.235 226.082 310.178 225.696 310.874 225.01C311.57 224.325 311.962 223.396 311.964 222.426V40.6287C311.962 39.6594 311.57 38.7302 310.874 38.0448C310.178 37.3594 309.235 36.9735 308.251 36.9717H176.943Z" fill="#EBEBEB"/>
<path d="M197.656 163.895V54.1582L48.2393 54.1582V163.895H197.656Z" fill="#EBEBEB"/>
<path d="M198.56 163.895V54.1582H197.655V163.895H198.56Z" fill="#E0E0E0"/>
<path d="M55.6307 156.601L190.257 156.601V61.4321L55.6307 61.4321V156.601Z" fill="#F5F5F5"/>
<path d="M154.455 161.705H178.405V128.685H154.455V161.705Z" fill="white"/>
<path d="M119.326 150.084H143.269L144.99 117.064H121.047L119.326 150.084Z" fill="white"/>
<path d="M104.332 161.705H128.282V128.685H104.332V161.705Z" fill="white"/>
<path d="M69.2036 150.084H93.1532L94.8736 117.064H70.9308L69.2036 150.084Z" fill="white"/>
<path d="M89.4539 108.852L122.053 111.143L127.656 66.3616L95.0503 64.071L89.4539 108.852Z" fill="white"/>
<path d="M167.817 91.331H191.76L193.487 58.3109H169.538L167.817 91.331Z" fill="white"/>
<path d="M136.354 110.232L160.281 111.266L161.749 78.2771L137.822 77.2441L136.354 110.232Z" fill="white"/>
<path d="M52.4745 101.054L76.4141 100.371L75.4429 67.3648L51.5034 68.0481L52.4745 101.054Z" fill="white"/>
<path d="M228.895 151.578H289.728V63.4615L228.895 63.4615V151.578Z" fill="#E0E0E0"/>
<path d="M225.23 151.578H288.069V63.4615L225.23 63.4615V151.578Z" fill="#F5F5F5"/>
<path d="M230.493 70.4071V144.639H282.805V70.4071H230.493Z" fill="white"/>
<path d="M263.16 111.109V116.756C261.45 116.757 259.757 116.426 258.177 115.782C256.597 115.138 255.162 114.194 253.952 113.003C252.743 111.813 251.784 110.399 251.129 108.843C250.475 107.288 250.138 105.62 250.138 103.936V98.2832C253.592 98.2832 256.904 99.6345 259.346 102.04C261.788 104.445 263.16 107.708 263.16 111.109Z" fill="#F5F5F5"/>
<path d="M263.16 92.0476V97.7005C259.706 97.7005 256.394 96.3492 253.952 93.9438C251.51 91.5384 250.138 88.276 250.138 84.8743V79.228C251.848 79.2271 253.541 79.5581 255.121 80.2019C256.701 80.8458 258.136 81.7899 259.345 82.9804C260.555 84.1709 261.514 85.5844 262.169 87.1402C262.823 88.696 263.16 90.3635 263.16 92.0476Z" fill="#F5F5F5"/>
<path d="M263.16 130.165V135.818C259.706 135.818 256.394 134.466 253.952 132.061C251.51 129.655 250.138 126.393 250.138 122.991V117.338C253.592 117.338 256.904 118.69 259.346 121.095C261.788 123.5 263.16 126.763 263.16 130.165Z" fill="#F5F5F5"/>
<path d="M176.882 251.689H195.969V181.758H176.882V251.689Z" fill="#F0F0F0"/>
<path d="M61.778 256.123H189.815V251.689L61.778 251.689V256.123Z" fill="#F0F0F0"/>
<path d="M176.882 181.764H55.6377V251.696H176.882V181.764Z" fill="#F5F5F5"/>
<path d="M164.295 190.371H68.2244V213.304H164.295V190.371Z" fill="#F0F0F0"/>
<path d="M164.295 220.149H68.2244V243.082H164.295V220.149Z" fill="#F0F0F0"/>
<path d="M101.857 214.061H130.662C131.439 214.061 132.07 213.44 132.07 212.675V212.3C132.07 211.534 131.439 210.913 130.662 210.913H101.857C101.08 210.913 100.45 211.534 100.45 212.3V212.675C100.45 213.44 101.08 214.061 101.857 214.061Z" fill="#F5F5F5"/>
<path d="M101.857 243.846H130.662C131.439 243.846 132.07 243.225 132.07 242.46V242.084C132.07 241.319 131.439 240.698 130.662 240.698H101.857C101.08 240.698 100.45 241.319 100.45 242.084V242.46C100.45 243.225 101.08 243.846 101.857 243.846Z" fill="#F5F5F5"/>
<path d="M260.494 238.883C260.542 222.681 260.95 200.585 263.711 192.588L267.492 191.074C267.492 191.074 266.56 192.575 264.52 217.43C262.596 240.638 262.385 236.492 262.528 238.863C262.528 239.191 262.065 239.466 261.48 239.452C260.93 239.439 260.494 239.191 260.494 238.883Z" fill="#E6E6E6"/>
<path d="M258.325 188.924C252.851 184.443 240.91 181.088 228.344 180.847C223.407 180.753 237.708 191.436 247.384 196.586C254.572 200.418 262.5 203.894 264.452 207.973C263.942 199.44 263.84 193.398 258.325 188.924Z" fill="#E6E6E6"/>
<path d="M259.141 211.174C255.326 208.053 247.003 205.716 238.245 205.548C234.804 205.481 244.773 212.916 251.512 216.519C256.516 219.198 262.045 221.609 263.405 224.469C263.058 218.508 262.963 214.329 259.141 211.174Z" fill="#E6E6E6"/>
<path d="M269.572 200.264C275.842 195.301 289.292 191.657 303.409 191.503C308.944 191.449 296.419 202.4 283.166 207.45C273.972 210.98 264.452 217.008 262.147 221.603C262.963 212.025 263.303 205.253 269.572 200.264Z" fill="#E6E6E6"/>
<path d="M266.152 184.624C270.266 180.478 279.514 176.587 289.388 175.14C293.264 174.571 288.109 182.079 276.135 188.342C269.817 191.637 263.5 197.049 262.14 200.538C262.174 193.626 262.031 188.764 266.152 184.624Z" fill="#E6E6E6"/>
<path d="M250.981 236.157L251.981 255.293C251.993 255.516 252.091 255.726 252.255 255.881C252.42 256.035 252.638 256.122 252.865 256.123H274.829C275.056 256.122 275.274 256.035 275.438 255.881C275.602 255.726 275.701 255.516 275.713 255.293L276.712 236.157H250.981Z" fill="#F0F0F0"/>
<path d="M278.378 240.216H249.315L248.486 232.788H279.215L278.378 240.216Z" fill="#F0F0F0"/>
<path d="M170 293.068C242.816 293.068 301.845 289.674 301.845 285.486C301.845 281.299 242.816 277.904 170 277.904C97.1839 277.904 38.1548 281.299 38.1548 285.486C38.1548 289.674 97.1839 293.068 170 293.068Z" fill="#F5F5F5"/>
<path d="M259.332 54.9218L258.686 54.7075C259.086 53.524 259.291 52.2847 259.291 51.0371H259.971C259.969 52.3573 259.753 53.6688 259.332 54.9218Z" fill="#0059D2"/>
<path d="M258.794 47.6748C258.252 45.9066 257.298 44.2874 256.009 42.9456C254.72 41.6039 253.131 40.5767 251.369 39.9456L251.6 39.316C253.463 39.982 255.142 41.0677 256.503 42.4864C257.865 43.9051 258.871 45.6177 259.44 47.4873L258.794 47.6748Z" fill="#0059D2"/>
<path d="M257.591 51.0438C257.593 49.1886 257.077 47.3686 256.1 45.7824C255.123 44.1962 253.723 42.9048 252.052 42.0491C250.38 41.1934 248.503 40.8063 246.623 40.93C244.744 41.0538 242.935 41.6836 241.395 42.7508C239.854 43.818 238.641 45.2816 237.887 46.9818C237.133 48.6819 236.868 50.5534 237.12 52.3918C237.373 54.2303 238.133 55.9651 239.318 57.407C240.504 58.8488 242.068 59.9423 243.841 60.5681L250.9 63.2472L249.56 60.9498C251.843 60.4453 253.883 59.1887 255.344 57.3876C256.804 55.5865 257.596 53.3487 257.591 51.0438Z" fill="#0059D2"/>
<path d="M231.431 57.5205C231.43 56.1611 231.808 54.8275 232.524 53.6652C233.239 52.503 234.266 51.5566 235.49 50.9296C236.715 50.3025 238.091 50.0188 239.468 50.1094C240.845 50.2 242.17 50.6614 243.299 51.4433C244.428 52.2252 245.317 53.2975 245.87 54.5432C246.422 55.7889 246.617 57.1602 246.432 58.5073C246.247 59.8545 245.691 61.1258 244.822 62.1825C243.954 63.2392 242.808 64.0408 241.509 64.4996L236.334 66.509L237.32 64.7608C235.65 64.3903 234.158 63.4719 233.088 62.1564C232.018 60.8408 231.434 59.2062 231.431 57.5205Z" fill="#263238"/>
<path d="M271.483 79.3085C268.634 81.7866 262.582 83.6218 259.1 83.3271C257.325 94.566 266.866 103.514 266.866 103.514C266.866 103.514 279.058 98.5914 281.54 87.4798C278.188 86.5153 273.224 82.6373 271.483 79.3085Z" fill="#0059D2"/>
<path opacity="0.3" d="M260.61 84.9948C260.073 92.7642 265.241 99.2745 267.254 101.491C269.974 100.152 277.155 95.9256 279.494 88.4977C276.177 86.9116 273.279 84.5891 271.028 81.7129C267.86 83.5866 264.294 84.7101 260.61 84.9948Z" fill="white"/>
<path d="M144.534 48.579L153.836 38.8405L166.158 44.4331L144.534 48.579Z" fill="#0059D2"/>
<path d="M166.162 44.4376L144.535 48.582C143.543 48.772 142.896 49.7179 143.089 50.6946L145.417 62.4827C145.61 63.4594 146.571 64.0972 147.562 63.9071L169.189 59.7627C170.18 59.5727 170.828 58.6268 170.635 57.6501L168.306 45.862C168.113 44.8853 167.153 44.2475 166.162 44.4376Z" fill="#0059D2"/>
<path opacity="0.4" d="M144.534 48.579L156.862 54.165L166.158 44.4331L144.534 48.579Z" fill="black"/>
<path d="M144.758 41.1512L147.852 50.0793L156.862 54.1649L164.125 46.563L160.419 35.88L144.758 41.1512Z" fill="#0059D2"/>
<g opacity="0.7">
<path d="M144.758 41.1512L147.852 50.0793L156.862 54.1649L164.125 46.563L160.419 35.88L144.758 41.1512Z" fill="white"/>
</g>
<path d="M143.351 79.8978L142.127 79.8308C141.873 79.4426 141.579 79.0812 141.25 78.7525L141.454 77.5603L138.455 75.9327L137.544 76.7365C137.083 76.6415 136.614 76.5899 136.143 76.5824L135.463 75.5978L132.172 76.5355L132.104 77.7478C131.706 77.9957 131.336 78.2854 131.002 78.6118L129.798 78.4042L128.146 81.3646L128.955 82.2554C128.858 82.7116 128.806 83.1758 128.799 83.6419L127.806 84.3116L128.758 87.5534L129.975 87.6204C130.232 88.0089 130.525 88.3722 130.852 88.7054L130.648 89.8909L133.654 91.5185L134.558 90.7147C135.021 90.81 135.493 90.8616 135.966 90.8688L136.646 91.8533L139.937 90.9157L139.998 89.7101C140.392 89.4535 140.76 89.162 141.1 88.8393L142.304 89.0403L143.956 86.0866L143.133 85.1891C143.233 84.749 143.287 84.3003 143.296 83.8495L144.296 83.1797L143.351 79.8978ZM136.986 86.9573C136.34 87.1402 135.654 87.1304 135.013 86.9293C134.373 86.7281 133.808 86.3446 133.389 85.8271C132.969 85.3096 132.715 84.6814 132.659 84.0218C132.602 83.3622 132.745 82.7009 133.069 82.1212C133.394 81.5416 133.886 81.0697 134.482 80.7652C135.079 80.4607 135.754 80.3372 136.422 80.4104C137.09 80.4835 137.721 80.75 138.235 81.1761C138.75 81.6023 139.124 82.169 139.312 82.8046C139.436 83.2277 139.475 83.6709 139.426 84.1087C139.376 84.5466 139.24 84.9705 139.024 85.3563C138.808 85.742 138.516 86.082 138.167 86.3567C137.817 86.6315 137.416 86.8355 136.986 86.9573Z" fill="#0059D2"/>
<path d="M127.276 78.1765L126.528 78.1363C126.374 77.8944 126.194 77.6698 125.99 77.4666L126.12 76.7365L124.284 75.7385L123.719 76.2342C123.44 76.1729 123.155 76.1414 122.869 76.1404L122.434 75.5376L120.394 76.1136L120.353 76.8504C120.108 77.0017 119.88 77.1791 119.673 77.3795L118.932 77.2522L117.919 79.0606L118.415 79.6098C118.359 79.8902 118.327 80.1748 118.32 80.4605L117.715 80.8824L118.293 82.8918L119.041 82.9319C119.201 83.171 119.383 83.3952 119.585 83.6017L119.456 84.3251L121.292 85.3231L121.849 84.8341C122.134 84.8892 122.423 84.9206 122.713 84.9279L123.141 85.5307L125.181 84.9547L125.222 84.2179C125.465 84.0623 125.692 83.8852 125.902 83.6888L126.636 83.8094L127.65 82.001L127.146 81.4517C127.208 81.1743 127.242 80.8917 127.248 80.6078L127.854 80.1792L127.276 78.1765ZM123.76 83.7223C123.114 83.9078 122.426 83.9001 121.784 83.7002C121.142 83.5002 120.575 83.117 120.154 82.5991C119.733 82.0812 119.478 81.4519 119.421 80.7911C119.364 80.1303 119.507 79.4677 119.833 78.8872C120.159 78.3067 120.652 77.8346 121.251 77.5306C121.849 77.2267 122.526 77.1046 123.195 77.1798C123.864 77.2551 124.495 77.5243 125.008 77.9533C125.522 78.3824 125.894 78.9519 126.079 79.5898C126.325 80.4406 126.219 81.3527 125.785 82.127C125.35 82.9013 124.622 83.4748 123.76 83.7223Z" fill="#263238"/>
<path d="M199.818 64.5531C196.663 63.9704 195.323 65.8927 195.425 68.6388C195.527 71.3849 193.345 75.3366 196.105 75.8657C198.866 76.3948 203.225 65.176 199.818 64.5531Z" fill="#263238"/>
<path d="M188.197 204.952C197.649 178.362 204.809 143.774 204.809 143.774L178.922 143.359C178.922 143.359 174.937 187.062 172.72 205.622C170.401 224.918 162.472 267.723 162.472 267.723L173.835 270.885C173.835 270.885 186.599 228.963 188.197 204.952Z" fill="#263238"/>
<path opacity="0.2" d="M193.12 162.984C193.12 162.984 192.365 183.405 191.44 195.22C193.875 187.551 196.085 179.668 197.975 172.448L193.12 162.984Z" fill="black"/>
<path d="M170.068 279.25L169.096 284.702C169.067 284.837 169.011 284.965 168.93 285.077C168.85 285.19 168.747 285.285 168.628 285.357C168.509 285.429 168.376 285.477 168.238 285.497C168.1 285.517 167.959 285.508 167.824 285.473C166.144 285.004 165.451 284.522 162.534 283.664C159.134 282.653 156.094 282.278 152.096 281.099C149.675 280.382 150.736 277.475 152.776 277.496C157.087 277.542 159.528 276.049 161.779 275.406C162.86 273.651 164.302 267.054 164.302 267.054L173.454 270.275C173.454 270.275 170.782 276.457 170.068 279.25Z" fill="#0059D2"/>
<path d="M162.52 269.358L172.917 272.425C173.128 272.485 173.353 272.467 173.552 272.376C173.75 272.285 173.909 272.127 173.998 271.93L175.535 268.628C175.589 268.518 175.618 268.399 175.621 268.278C175.624 268.156 175.6 268.036 175.552 267.924C175.504 267.813 175.432 267.712 175.341 267.63C175.25 267.548 175.142 267.487 175.025 267.449L163.758 263.933C163.633 263.897 163.503 263.887 163.374 263.904C163.246 263.921 163.123 263.964 163.012 264.031C162.902 264.098 162.807 264.187 162.734 264.293C162.661 264.398 162.611 264.517 162.588 264.643L161.908 268.393C161.871 268.6 161.913 268.813 162.026 268.991C162.139 269.169 162.315 269.3 162.52 269.358Z" fill="#263238"/>
<path opacity="0.1" d="M162.52 269.358L172.917 272.425C173.128 272.485 173.353 272.467 173.552 272.376C173.75 272.285 173.909 272.127 173.998 271.93L175.535 268.628C175.589 268.518 175.618 268.399 175.621 268.278C175.624 268.156 175.6 268.036 175.552 267.924C175.504 267.813 175.432 267.712 175.341 267.63C175.25 267.548 175.142 267.487 175.025 267.449L163.758 263.933C163.633 263.897 163.503 263.887 163.374 263.904C163.246 263.921 163.123 263.964 163.012 264.031C162.902 264.098 162.807 264.187 162.734 264.293C162.661 264.398 162.611 264.517 162.588 264.643L161.908 268.393C161.871 268.6 161.913 268.813 162.026 268.991C162.139 269.169 162.315 269.3 162.52 269.358Z" fill="white"/>
<path d="M217.083 283.591L216.023 278.902C215.696 276.049 215.914 269.438 215.914 269.438L206.775 269.666C206.775 269.666 207.455 275.694 207.421 277.817C205.666 279.029 203.905 280.724 200.104 281.836C198.315 282.352 198.485 285.406 200.852 285.446C204.775 285.513 207.557 285.064 210.902 285.124C213.758 285.171 214.091 285.446 215.73 285.446C215.956 285.444 216.179 285.39 216.38 285.288C216.58 285.186 216.754 285.038 216.886 284.857C217.018 284.676 217.104 284.467 217.139 284.247C217.173 284.027 217.154 283.802 217.083 283.591Z" fill="#0059D2"/>
<path d="M213.88 203.358C213.092 175.85 216.226 160.023 212.112 143.908L188.564 143.56C188.564 143.56 194.868 187.203 197.962 205.381C201.056 223.558 205.442 269.458 205.442 269.458L217.002 269.599C217.002 269.599 218.341 224.643 213.88 203.358Z" fill="#263238"/>
<path d="M205.7 271.501L216.635 271.669C216.87 271.679 217.1 271.601 217.279 271.45C217.458 271.3 217.573 271.088 217.6 270.858L217.974 267.295C217.989 267.18 217.978 267.063 217.944 266.952C217.91 266.842 217.852 266.739 217.776 266.651C217.699 266.564 217.604 266.493 217.498 266.443C217.391 266.394 217.276 266.367 217.158 266.364L205.251 266.002C205.117 265.999 204.984 266.025 204.861 266.077C204.737 266.13 204.627 266.208 204.538 266.307C204.449 266.406 204.382 266.523 204.344 266.649C204.305 266.776 204.294 266.909 204.313 267.04L204.905 270.791C204.933 270.982 205.028 271.157 205.173 271.287C205.318 271.417 205.505 271.492 205.7 271.501Z" fill="#263238"/>
<path opacity="0.1" d="M205.7 271.501L216.635 271.669C216.87 271.679 217.1 271.601 217.279 271.45C217.458 271.3 217.573 271.088 217.6 270.858L217.974 267.295C217.989 267.18 217.978 267.063 217.944 266.952C217.91 266.842 217.852 266.739 217.776 266.651C217.699 266.564 217.604 266.493 217.498 266.443C217.391 266.394 217.276 266.367 217.158 266.364L205.251 266.002C205.117 265.999 204.984 266.025 204.861 266.077C204.737 266.13 204.627 266.208 204.538 266.307C204.449 266.406 204.382 266.523 204.344 266.649C204.305 266.776 204.294 266.909 204.313 267.04L204.905 270.791C204.933 270.982 205.028 271.157 205.173 271.287C205.318 271.417 205.505 271.492 205.7 271.501Z" fill="white"/>
<path d="M187.082 93.1326H187L175.97 92.3088C172.87 92.0587 169.785 91.7685 166.716 91.4381C166.329 90.7669 165.984 90.0736 165.682 89.3617C165.068 87.9002 164.556 86.3985 164.152 84.8675C163.724 83.2936 163.37 81.6593 163.071 80.0049C162.772 78.3506 162.52 76.6561 162.309 75.0151V74.8811C162.236 74.3349 161.968 73.8322 161.552 73.4632C161.137 73.0943 160.601 72.8832 160.042 72.8679C159.483 72.8526 158.936 73.034 158.501 73.3796C158.065 73.7253 157.769 74.2125 157.665 74.7539C157.338 76.6114 157.142 78.4891 157.08 80.3733C156.998 82.2628 157.041 84.1557 157.209 86.0396C157.385 87.9986 157.731 89.9391 158.243 91.8399C158.796 93.8987 159.638 95.8713 160.745 97.7005C161.018 98.1418 161.38 98.5238 161.808 98.8232C162.236 99.1226 162.721 99.3331 163.234 99.4419L163.567 99.5089C165.471 99.9107 167.382 100.299 169.293 100.601C171.204 100.902 173.114 101.21 175.032 101.451C176.95 101.692 178.867 101.893 180.792 102.061C182.716 102.228 184.613 102.349 186.619 102.402C187.835 102.412 189.007 101.96 189.891 101.138C190.776 100.317 191.304 99.1912 191.365 97.9956C191.427 96.7999 191.017 95.6271 190.221 94.7222C189.425 93.8172 188.305 93.2501 187.095 93.1393L187.082 93.1326Z" fill="#FF8B7B"/>
<path d="M194.018 93.7689C188.058 92.6547 182.028 91.9342 175.971 91.6122C174.792 96.3653 174.884 101.338 176.236 106.046C176.236 106.046 178.922 107.385 186.545 106.461C195.065 105.376 201.192 95.2089 194.018 93.7689Z" fill="#0059D2"/>
<path d="M213.887 96.2537C207.502 94.7618 200.979 93.9157 194.419 93.7286C187.32 93.588 181.764 97.044 180.411 103.916C177.746 117.672 177.007 131.723 178.214 145.677C178.269 148.161 210.256 147.947 212.894 145.677C214.044 136.802 212.779 127.291 218.688 107.426C219.898 103.34 218.049 97.2316 213.887 96.2537Z" fill="#0059D2"/>
<path d="M194.739 103.146C194.603 103.722 194.242 104.13 193.929 104.057C193.617 103.983 193.481 103.461 193.617 102.885C193.753 102.309 194.113 101.9 194.426 101.974C194.739 102.047 194.875 102.597 194.739 103.146Z" fill="white"/>
<path d="M249.669 86.7764C249.887 84.7905 249.962 82.7917 249.893 80.7953C249.869 80.2124 249.634 79.6573 249.231 79.2296C248.828 78.8019 248.284 78.5298 247.696 78.462C247.107 78.3942 246.514 78.5353 246.022 78.8598C245.53 79.1844 245.171 79.6711 245.011 80.2327L244.97 80.3733C244.501 82.021 243.984 83.8093 243.406 85.4837C242.828 87.1582 242.216 88.8326 241.515 90.4133C240.857 91.9592 240.092 93.4586 239.224 94.9008C238.795 95.597 238.325 96.268 237.816 96.9101C234.552 96.7985 231.275 96.64 227.983 96.4346L216.301 95.6443H216.24C214.923 95.5244 213.612 95.9245 212.595 96.7566C211.578 97.5888 210.939 98.7848 210.817 100.082C210.695 101.378 211.101 102.67 211.946 103.671C212.791 104.673 214.005 105.303 215.322 105.423C217.43 105.671 219.402 105.818 221.476 105.945C223.55 106.073 225.556 106.14 227.596 106.166C229.636 106.193 231.676 106.166 233.716 106.166C235.756 106.166 237.83 106.012 239.89 105.878H240.257C240.811 105.841 241.351 105.693 241.844 105.443C242.338 105.193 242.774 104.847 243.127 104.425C244.569 102.676 245.753 100.734 246.643 98.6583C247.477 96.7472 248.141 94.7684 248.628 92.7441C249.109 90.7797 249.456 88.7861 249.669 86.7764Z" fill="#FF8B7B"/>
<path d="M208.882 95.2089C215.298 94.9358 221.724 95.0858 228.119 95.6577C228.624 100.814 227.762 106.011 225.617 110.741C225.617 110.741 222.591 111.752 214.737 109.629C205.985 107.251 201.137 95.671 208.882 95.2089Z" fill="#0059D2"/>
<path d="M248.69 83.7222L254.021 79.8576L247.833 74.9146C247.833 74.9146 243.44 79.0337 245.201 81.7129L248.69 83.7222Z" fill="#FF8B7B"/>
<path d="M255.184 73.0058L252.729 71.6662C252.255 71.4048 251.701 71.3225 251.17 71.4347C250.64 71.5469 250.169 71.846 249.846 72.2757L247.806 74.9013L253.994 79.8442L256.034 76.2006C256.347 75.665 256.433 75.0294 256.274 74.4314C256.115 73.8335 255.723 73.3213 255.184 73.0058Z" fill="#FF8B7B"/>
<path d="M255.741 111.886C255.517 111.314 255.073 110.852 254.505 110.601C253.937 110.35 253.291 110.331 252.708 110.547H252.627C251.022 111.143 249.329 111.779 247.683 112.349C246.038 112.918 244.372 113.487 242.719 113.983C241.067 114.478 239.421 114.914 237.803 115.322C236.885 115.523 235.974 115.691 235.083 115.818C232.816 113.751 230.549 111.639 228.283 109.482L220.415 101.806L220.368 101.759C219.486 100.937 218.316 100.481 217.101 100.487C215.887 100.494 214.722 100.962 213.849 101.793C212.977 102.625 212.464 103.757 212.417 104.952C212.371 106.148 212.796 107.315 213.602 108.209C214.962 109.663 216.322 110.982 217.682 112.315C219.042 113.648 220.476 114.934 221.932 116.193C223.387 117.452 224.842 118.691 226.345 119.897C227.848 121.103 229.391 122.281 230.948 123.433L231.248 123.661C231.665 123.964 232.141 124.18 232.646 124.295C233.151 124.41 233.675 124.422 234.185 124.331C236.188 123.961 238.156 123.426 240.067 122.73C241.88 122.064 243.656 121.302 245.385 120.446C247.085 119.598 248.733 118.682 250.328 117.7C251.94 116.724 253.499 115.666 255 114.532C255.393 114.226 255.676 113.804 255.809 113.328C255.943 112.853 255.919 112.348 255.741 111.886Z" fill="#FF8B7B"/>
<path d="M215.907 97.0374C220.672 100.733 225.181 104.739 229.405 109.026C226.542 113.023 222.676 116.222 218.185 118.31C218.185 118.31 215.383 117.198 211.099 110.942C206.305 103.903 210.066 92.6705 215.907 97.0374Z" fill="#0059D2"/>
<path d="M254.742 114.673L260.678 112.663L256.272 106.635C256.272 106.635 251.233 109.314 252.192 112.228L254.742 114.673Z" fill="#FF8B7B"/>
<path d="M263.303 106.783L261.405 104.947C261.041 104.594 260.557 104.385 260.047 104.358C259.536 104.33 259.033 104.488 258.631 104.8L256.135 106.709L260.657 112.643L263.316 109.897C263.729 109.48 263.958 108.919 263.956 108.337C263.953 107.755 263.719 107.197 263.303 106.783Z" fill="#FF8B7B"/>
<path d="M195.84 99.5624C196.794 100.692 197.32 102.112 197.329 103.581C203.646 102.516 208.889 99.4285 209.569 95.3026C208.501 94.3114 207.794 94.4855 207.794 94.4855C207.794 94.4855 203.449 98.176 195.84 99.5624Z" fill="white"/>
<path d="M195.84 99.5624C194.138 99.8519 192.585 100.699 191.434 101.967C189.006 99.6428 192.168 94.6596 194.106 93.7219C194.954 93.4814 195.844 93.4197 196.717 93.5411C196.717 93.5411 194.031 94.9543 195.84 99.5624Z" fill="white"/>
<path d="M208.896 79.9983C207.679 83.8026 206.142 90.4602 207.693 94.2847C207.88 94.7452 207.906 95.2546 207.764 95.7309C207.622 96.2072 207.321 96.6226 206.911 96.9102C204.046 99.0533 200.479 100.079 196.894 99.7902C192.855 99.462 192.603 97.3991 193.413 95.651C193.627 95.2103 193.938 94.8222 194.324 94.5151C194.71 94.2081 195.161 93.9897 195.643 93.8761C199.723 92.8915 199.907 89.5024 199.458 86.2339L208.896 79.9983Z" fill="#FF8B7B"/>
<path opacity="0.2" d="M205.047 82.5434L199.464 86.2339C199.587 87.0609 199.639 87.8966 199.621 88.7321C201.572 88.6853 204.456 86.9103 204.884 84.9546C205.088 84.1674 205.143 83.3502 205.047 82.5434Z" fill="black"/>
<path d="M212.452 74.3453C210.514 80.1523 209.678 83.6418 205.863 85.9458C200.124 89.4153 193.487 84.968 193.623 78.7524C193.759 73.1531 196.901 64.6067 203.361 63.6489C204.771 63.4208 206.218 63.5585 207.558 64.0486C208.898 64.5386 210.085 65.3641 211.003 66.4437C211.921 67.5233 212.537 68.8197 212.791 70.2053C213.045 71.5908 212.928 73.0177 212.452 74.3453Z" fill="#FF8B7B"/>
<path d="M195.84 75.4973C195.569 75.4959 195.3 75.4506 195.044 75.3634C194.6 75.1847 194.207 74.9004 193.9 74.5358C193.594 74.1711 193.385 73.7375 193.29 73.2737C193.039 72.1415 193.115 70.9629 193.508 69.8707C193.901 68.7784 194.595 67.8159 195.514 67.0916C195.872 66.7697 196.312 66.5497 196.788 66.455C197.263 66.3604 197.756 66.3946 198.213 66.5541C198.67 66.7137 199.075 66.9925 199.384 67.3608C199.693 67.7291 199.895 68.1731 199.968 68.6455C200.242 69.7779 200.166 70.965 199.75 72.0547C199.036 74.1109 197.404 75.4973 195.84 75.4973ZM197.404 66.75C196.789 66.7687 196.196 66.9799 195.711 67.3528C194.842 68.0362 194.185 68.9454 193.814 69.9776C193.442 71.0097 193.372 72.1236 193.61 73.1933C193.69 73.6053 193.873 73.9912 194.143 74.3162C194.412 74.6413 194.759 74.8952 195.153 75.0553C196.704 75.5978 198.628 74.2047 199.444 71.9408C199.834 70.9153 199.907 69.7991 199.655 68.7326C199.572 68.3197 199.387 67.9333 199.117 67.6074C198.846 67.2816 198.499 67.0262 198.104 66.8639C197.888 66.7889 197.66 66.7505 197.431 66.75H197.404Z" fill="#263238"/>
<path d="M202.796 77.9152C202.525 77.9176 202.256 77.8722 202.001 77.7813C200.28 77.1785 199.587 74.7137 200.464 72.2891C200.835 71.1857 201.534 70.2174 202.47 69.5095C202.833 69.2008 203.273 68.9922 203.745 68.9049C204.216 68.8176 204.703 68.8547 205.155 69.0125C205.607 69.1703 206.009 69.4431 206.32 69.8033C206.631 70.1635 206.839 70.5983 206.924 71.0634C207.198 72.1958 207.122 73.383 206.706 74.4726C205.965 76.5355 204.326 77.9152 202.796 77.9152ZM204.36 69.1679C203.744 69.1907 203.15 69.4013 202.66 69.7707C201.78 70.442 201.122 71.3559 200.77 72.3963C199.961 74.6534 200.559 76.9374 202.13 77.4799C203.701 78.0224 205.605 76.6226 206.421 74.3654C206.812 73.3376 206.883 72.2183 206.625 71.1505C206.543 70.7381 206.359 70.3519 206.09 70.026C205.821 69.7001 205.474 69.4445 205.081 69.2818C204.849 69.205 204.605 69.1665 204.36 69.1679Z" fill="#263238"/>
<path d="M200.6 72.5035C200.554 72.5014 200.51 72.4823 200.478 72.4499C200.385 72.3287 200.258 72.2365 200.114 72.1843C199.969 72.132 199.812 72.1219 199.662 72.1552C199.62 72.1659 199.576 72.1609 199.538 72.141C199.501 72.1211 199.472 72.0879 199.458 72.048C199.445 72.0071 199.448 71.9628 199.467 71.9241C199.486 71.8855 199.519 71.8555 199.56 71.8404C199.773 71.7904 199.996 71.801 200.203 71.871C200.41 71.9409 200.592 72.0674 200.729 72.2355C200.759 72.2665 200.775 72.3072 200.775 72.3494C200.775 72.3916 200.759 72.4323 200.729 72.4633C200.712 72.4791 200.692 72.4909 200.669 72.4979C200.647 72.5048 200.623 72.5067 200.6 72.5035Z" fill="#263238"/>
<path d="M211.283 77.6339C211.252 77.6432 211.219 77.6432 211.188 77.6339C207.733 75.1758 206.428 74.8878 206.428 74.8878C206.384 74.8798 206.346 74.8552 206.321 74.8194C206.296 74.7836 206.287 74.7396 206.295 74.6969C206.303 74.6543 206.328 74.6166 206.365 74.5921C206.401 74.5676 206.446 74.5583 206.489 74.5663C206.543 74.5663 207.849 74.8476 211.392 77.3727C211.427 77.3982 211.451 77.4361 211.458 77.4785C211.466 77.5209 211.457 77.5646 211.432 77.6004C211.412 77.6167 211.387 77.6282 211.362 77.634C211.336 77.6398 211.309 77.6398 211.283 77.6339Z" fill="#263238"/>
<path d="M208.515 79.2682C206.203 77.145 208.433 74.774 209.875 73.91C211.459 72.9455 209.073 71.827 211.017 69.4827C203.129 69.6703 204.816 66.0736 200.654 66.4955C198.383 66.7232 196.112 64.7474 196.397 61.5927C196.935 55.6317 205.591 54.2855 206.965 56.5225C203.707 57.0918 204.394 59.061 205.822 59.2016C209.535 59.503 208.821 61.365 210.793 63.1131C213.595 65.5913 217.042 63.448 216.607 68.6254C222.115 69.965 219.062 75.993 215.567 77.6004C213.315 78.5038 210.938 79.0661 208.515 79.2682Z" fill="#263238"/>
<path d="M214.71 68.5249C215.264 68.5318 215.812 68.422 216.319 68.2028C216.826 67.9837 217.28 67.6602 217.649 67.2543C218.019 66.8483 218.296 66.3692 218.463 65.849C218.629 65.3288 218.68 64.7797 218.613 64.2383C220.68 68.0561 218.171 69.255 214.71 68.5249Z" fill="#263238"/>
<path d="M213.058 80.6211C212.02 81.6709 210.625 82.3054 209.141 82.4027C207.285 82.4697 207.06 80.6211 208.169 79.0538C209.168 77.6205 211.344 75.859 212.929 76.5489C214.513 77.2387 214.404 79.2883 213.058 80.6211Z" fill="#FF8B7B"/>
<path d="M212.888 81.3512C211.99 82.2286 210.691 82.3893 209.998 81.6995C209.304 81.0096 209.474 79.7437 210.378 78.8596C211.283 77.9755 212.575 77.8148 213.268 78.5046C213.962 79.1945 213.792 80.4671 212.888 81.3512Z" fill="#263238"/>
<path d="M199.029 83.4677C198.848 83.3365 198.707 83.1579 198.623 82.952C198.54 82.7461 198.517 82.5212 198.556 82.3029C198.596 82.0846 198.697 81.8817 198.848 81.7171C198.999 81.5525 199.193 81.4329 199.41 81.3719C199.626 81.3109 199.856 81.3109 200.072 81.3719C200.289 81.4329 200.483 81.5525 200.634 81.717C200.785 81.8816 200.886 82.0846 200.926 82.3029C200.965 82.5212 200.942 82.746 200.858 82.9519C200.683 83.2564 200.393 83.4809 200.051 83.5773C199.709 83.6737 199.342 83.6344 199.029 83.4677Z" fill="#263238"/>
<path d="M203.191 83.0859C202.021 83.0955 200.853 82.9764 199.709 82.7309C199.665 82.7208 199.623 82.7021 199.585 82.676C199.548 82.6498 199.516 82.6166 199.492 82.5784C199.468 82.5401 199.451 82.4975 199.444 82.453C199.436 82.4085 199.437 82.363 199.448 82.319C199.458 82.275 199.477 82.2335 199.503 82.1967C199.53 82.16 199.564 82.1287 199.602 82.1048C199.641 82.0808 199.685 82.0646 199.73 82.0572C199.775 82.0497 199.821 82.051 199.866 82.0611C203.205 82.8448 208.604 82.3224 210.555 80.4805C210.587 80.4491 210.625 80.4242 210.666 80.4072C210.707 80.3902 210.752 80.3814 210.797 80.3814C210.842 80.3814 210.886 80.3902 210.928 80.4072C210.969 80.4242 211.007 80.4491 211.038 80.4805C211.07 80.511 211.095 80.5475 211.112 80.5878C211.129 80.628 211.138 80.6712 211.138 80.7149C211.138 80.7586 211.129 80.8018 211.112 80.842C211.095 80.8823 211.07 80.9188 211.038 80.9493C209.535 82.3826 206.237 83.0859 203.191 83.0859Z" fill="#263238"/>
<path d="M203.048 73.6755C202.885 74.1443 202.504 74.4457 202.191 74.3453C201.879 74.2448 201.763 73.7894 201.926 73.3205C202.089 72.8517 202.477 72.5503 202.783 72.6507C203.089 72.7512 203.211 73.1732 203.048 73.6755Z" fill="#263238"/>
<path d="M197.2 71.6662C197.037 72.1351 196.656 72.4365 196.343 72.336C196.03 72.2355 195.915 71.7801 196.078 71.3112C196.241 70.8424 196.629 70.541 196.935 70.6415C197.241 70.7419 197.39 71.1974 197.2 71.6662Z" fill="#263238"/>
<path d="M199.342 73.2268C197.873 73.9781 196.45 74.8123 195.078 75.7251C195.418 76.857 197.207 77.2589 197.207 77.2589L199.342 73.2268Z" fill="#FF5652"/>
<path d="M197.88 79.3485C198.417 79.519 198.984 79.5807 199.546 79.5301C200.108 79.4795 200.654 79.3174 201.151 79.0538C201.185 79.0342 201.21 79.0021 201.22 78.9644C201.23 78.9268 201.225 78.8867 201.205 78.8529C201.184 78.8203 201.151 78.7972 201.113 78.7884C201.075 78.7796 201.035 78.786 201.001 78.806C200.449 79.091 199.836 79.2438 199.212 79.252C198.588 79.2601 197.971 79.1234 197.411 78.8529C197.376 78.8366 197.335 78.8344 197.299 78.8469C197.262 78.8594 197.231 78.8856 197.214 78.9199C197.204 78.9365 197.199 78.9548 197.197 78.9737C197.195 78.9926 197.196 79.0117 197.202 79.0299C197.208 79.048 197.217 79.0648 197.23 79.0793C197.242 79.0938 197.258 79.1056 197.275 79.1141C197.472 79.2044 197.674 79.2827 197.88 79.3485Z" fill="#263238"/>
<path d="M205.904 72.8383C205.953 72.8518 206.005 72.8518 206.054 72.8383C206.091 72.827 206.126 72.8083 206.156 72.7835C206.186 72.7587 206.21 72.7282 206.228 72.6938C206.246 72.6595 206.256 72.622 206.259 72.5835C206.262 72.545 206.257 72.5064 206.244 72.47C206.11 72.0339 205.869 71.6369 205.543 71.3135C205.217 70.9901 204.816 70.7502 204.374 70.6147C204.297 70.5963 204.215 70.6083 204.146 70.6484C204.078 70.6884 204.028 70.7532 204.007 70.829C203.988 70.9027 204 70.9807 204.04 71.0459C204.079 71.1111 204.143 71.1583 204.218 71.1773C204.567 71.2894 204.882 71.4833 205.138 71.7423C205.394 72.0013 205.582 72.3177 205.687 72.6642C205.705 72.7089 205.735 72.7482 205.773 72.7786C205.811 72.8091 205.856 72.8296 205.904 72.8383Z" fill="#263238"/>
<path d="M196.098 69.0674C196.141 69.0903 196.189 69.1023 196.238 69.1023C196.286 69.1023 196.334 69.0903 196.377 69.0674C196.698 68.8843 197.058 68.779 197.428 68.7604C197.798 68.7418 198.168 68.8103 198.506 68.9603C198.575 68.996 198.656 69.0034 198.731 68.9808C198.806 68.9583 198.869 68.9076 198.907 68.8397C198.927 68.8075 198.94 68.7716 198.946 68.7341C198.951 68.6967 198.949 68.6585 198.938 68.6221C198.928 68.5856 198.91 68.5516 198.886 68.5222C198.862 68.4928 198.832 68.4686 198.798 68.4512C198.37 68.2494 197.898 68.1536 197.424 68.1723C196.95 68.191 196.488 68.3235 196.078 68.5584C196.031 68.5829 195.992 68.6195 195.964 68.6644C195.937 68.7092 195.922 68.7606 195.922 68.8129C195.922 68.8652 195.937 68.9166 195.964 68.9614C195.992 69.0063 196.031 69.0429 196.078 69.0674H196.098Z" fill="#263238"/>
<path d="M158.767 77.0244L154.054 73.0057L160.269 68.833C160.269 68.833 164.091 73.0258 162.214 75.4638L158.767 77.0244Z" fill="#FF8B7B"/>
<path d="M153.503 66.4621L155.917 65.3636C156.384 65.1553 156.911 65.1206 157.401 65.2659C157.891 65.4112 158.311 65.7268 158.583 66.154L160.269 68.7862L154.054 72.9589L152.415 69.3823C152.169 68.8526 152.146 68.2486 152.35 67.7018C152.553 67.1549 152.968 66.7094 153.503 66.4621Z" fill="#FF8B7B"/>
<path d="M186.381 104.82C186.127 104.279 185.766 103.793 185.321 103.39C184.875 102.987 184.353 102.675 183.784 102.471C183.215 102.268 182.611 102.177 182.006 102.204C181.402 102.231 180.809 102.376 180.261 102.63L180.05 102.724L179.017 103.199L177.895 103.702C177.133 104.023 176.365 104.371 175.59 104.659C174.046 105.329 172.475 105.858 170.898 106.401C169.32 106.943 167.722 107.419 166.138 107.841C164.737 108.216 163.329 108.511 161.915 108.779C160.691 108.47 159.399 108.062 158.107 107.6C156.482 107.017 154.829 106.341 153.184 105.631C151.538 104.921 149.879 104.17 148.226 103.407L143.269 101.083H143.222C142.724 100.853 142.158 100.806 141.629 100.952C141.099 101.097 140.639 101.425 140.334 101.876C140.029 102.327 139.898 102.87 139.965 103.408C140.032 103.946 140.292 104.442 140.699 104.807C142.154 106.099 143.636 107.251 145.166 108.397C146.696 109.542 148.274 110.614 149.926 111.645C151.571 112.698 153.269 113.668 155.013 114.552C156.859 115.503 158.783 116.299 160.766 116.93C161.167 117.047 161.586 117.09 162.003 117.057H162.289C164.226 116.92 166.154 116.674 168.062 116.32C169.021 116.159 169.946 115.938 170.891 115.738C171.836 115.537 172.747 115.275 173.665 115.001C175.508 114.485 177.31 113.869 179.105 113.179C179.989 112.831 180.88 112.509 181.75 112.074C182.186 111.873 182.628 111.679 183.063 111.464C183.498 111.25 183.906 111.042 184.423 110.754C185.46 110.201 186.241 109.277 186.606 108.173C186.97 107.068 186.89 105.868 186.381 104.82Z" fill="#FF8B7B"/>
<path d="M185.919 99.1271C180.331 101.047 174.879 103.332 169.599 105.966C170.956 110.541 173.49 114.694 176.956 118.022C176.956 118.022 179.901 117.874 185.878 113.427C192.569 108.504 192.719 96.9436 185.919 99.1271Z" fill="#0059D2"/>
<path d="M142.018 105.416L135.946 104.84L138.469 98.0487C138.469 98.0487 143.909 99.2409 143.834 102.228L142.018 105.416Z" fill="#FF8B7B"/>
<path d="M131.757 99.9912L133.042 97.7742C133.288 97.3445 133.686 97.019 134.16 96.8596C134.634 96.7003 135.151 96.7183 135.612 96.9102L138.468 98.0488L135.946 104.84L132.6 102.918C132.097 102.638 131.726 102.173 131.568 101.625C131.41 101.077 131.478 100.49 131.757 99.9912Z" fill="#FF8B7B"/>
<path d="M278.052 161.751H61.948C61.4827 161.751 61.0365 161.569 60.7075 161.245C60.3785 160.921 60.1936 160.482 60.1936 160.023C60.1927 159.796 60.2374 159.57 60.3252 159.36C60.413 159.15 60.5421 158.958 60.7051 158.797C60.8681 158.636 61.0618 158.508 61.2751 158.421C61.4884 158.333 61.7171 158.289 61.948 158.289H278.052C278.283 158.289 278.512 158.333 278.725 158.421C278.938 158.508 279.132 158.636 279.295 158.797C279.458 158.958 279.587 159.15 279.675 159.36C279.763 159.57 279.807 159.796 279.806 160.023C279.806 160.482 279.622 160.921 279.293 161.245C278.964 161.569 278.517 161.751 278.052 161.751Z" fill="#0059D2"/>
<path d="M240.536 145.456H232.016C231.52 145.456 231.118 145.851 231.118 146.34V157.411C231.118 157.899 231.52 158.295 232.016 158.295H240.536C241.032 158.295 241.434 157.899 241.434 157.411V146.34C241.434 145.851 241.032 145.456 240.536 145.456Z" fill="#0059D2"/>
<path d="M241.434 156.48C240.509 156.482 239.603 156.212 238.833 155.707C238.063 155.201 237.462 154.482 237.107 153.64C236.752 152.798 236.658 151.872 236.838 150.977C237.018 150.083 237.463 149.261 238.117 148.616C238.771 147.971 239.604 147.531 240.512 147.353C241.42 147.175 242.361 147.266 243.216 147.614C244.071 147.963 244.803 148.553 245.317 149.311C245.831 150.069 246.106 150.96 246.106 151.872C246.104 153.093 245.611 154.263 244.736 155.126C243.86 155.99 242.673 156.477 241.434 156.48ZM241.434 148.61C240.777 148.609 240.135 148.8 239.588 149.158C239.041 149.517 238.615 150.027 238.363 150.625C238.111 151.222 238.045 151.88 238.172 152.515C238.3 153.149 238.616 153.732 239.081 154.19C239.545 154.648 240.137 154.959 240.782 155.085C241.426 155.211 242.094 155.145 242.7 154.897C243.307 154.649 243.825 154.229 244.189 153.691C244.554 153.152 244.747 152.519 244.746 151.872C244.744 151.008 244.395 150.179 243.774 149.568C243.153 148.956 242.312 148.612 241.434 148.61Z" fill="#0059D2"/>
<path opacity="0.3" d="M278.052 161.751H217.988C217.522 161.751 217.075 161.569 216.745 161.246C216.414 160.922 216.228 160.482 216.226 160.023C216.226 159.563 216.412 159.122 216.742 158.797C217.072 158.471 217.52 158.289 217.988 158.289H278.052C278.283 158.289 278.512 158.333 278.725 158.421C278.938 158.508 279.132 158.636 279.295 158.797C279.458 158.958 279.587 159.15 279.675 159.36C279.763 159.57 279.807 159.796 279.806 160.023C279.806 160.482 279.621 160.921 279.292 161.245C278.963 161.569 278.517 161.751 278.052 161.751Z" fill="black"/>
<path d="M251.335 161.751H244.705V213.994H251.335V161.751Z" fill="#263238"/>
<path d="M258.04 161.751H270.688V162.997C270.688 163.377 270.534 163.742 270.261 164.011C269.988 164.279 269.618 164.43 269.232 164.43H259.495C259.109 164.43 258.739 164.279 258.466 164.011C258.193 163.742 258.04 163.377 258.04 162.997V161.751Z" fill="#263238"/>
<path d="M252.974 201.047H243.066V253.29H252.974V201.047Z" fill="#263238"/>
<path d="M254.64 233.243H241.4V285.486H254.64V233.243Z" fill="#263238"/>
<path d="M262.337 285.486H233.702C233.702 284.713 234.014 283.972 234.569 283.426C235.123 282.88 235.876 282.573 236.66 282.573H259.379C260.164 282.573 260.916 282.88 261.471 283.426C262.026 283.972 262.337 284.713 262.337 285.486Z" fill="#263238"/>
<path d="M95.2953 161.751H88.6653V213.994H95.2953V161.751Z" fill="#263238"/>
<path d="M96.934 201.047H87.0264V253.29H96.934V201.047Z" fill="#263238"/>
<path d="M98.6002 233.243H85.3606V285.486H98.6002V233.243Z" fill="#263238"/>
<path d="M106.297 285.486H77.6626C77.6626 284.713 77.9742 283.972 78.529 283.426C79.0837 282.88 79.8361 282.573 80.6206 282.573H103.36C104.144 282.573 104.897 282.88 105.451 283.426C106.006 283.972 106.318 284.713 106.318 285.486H106.297Z" fill="#263238"/>
<path d="M174.264 156.206H92.8133C92.5331 156.207 92.265 156.318 92.0676 156.514C91.8701 156.71 91.7593 156.974 91.7593 157.25C91.7611 157.525 91.8727 157.788 92.07 157.983C92.2672 158.177 92.5343 158.287 92.8133 158.289H174.264C174.544 158.289 174.813 158.179 175.011 157.985C175.21 157.79 175.323 157.526 175.324 157.25C175.324 156.973 175.213 156.708 175.014 156.512C174.815 156.316 174.545 156.206 174.264 156.206Z" fill="#0059D2"/>
<path opacity="0.3" d="M174.264 156.206H92.8133C92.5331 156.207 92.265 156.318 92.0676 156.514C91.8701 156.71 91.7593 156.974 91.7593 157.25C91.7611 157.525 91.8727 157.788 92.07 157.983C92.2672 158.177 92.5343 158.287 92.8133 158.289H174.264C174.544 158.289 174.813 158.179 175.011 157.985C175.21 157.79 175.323 157.526 175.324 157.25C175.324 156.973 175.213 156.708 175.014 156.512C174.815 156.316 174.545 156.206 174.264 156.206Z" fill="black"/>
<path d="M145.826 118.798H88.0261C87.6457 118.789 87.2681 118.864 86.9206 119.017C86.5731 119.169 86.2645 119.396 86.0171 119.681C85.7697 119.966 85.5897 120.301 85.4903 120.663C85.3908 121.024 85.3743 121.403 85.4421 121.772L90.2021 154.277C90.3412 155.089 90.7612 155.828 91.3908 156.37C92.0203 156.912 92.8208 157.223 93.6565 157.25H151.456C151.837 157.259 152.214 157.185 152.562 157.032C152.909 156.88 153.218 156.653 153.465 156.368C153.713 156.083 153.893 155.748 153.992 155.386C154.092 155.024 154.108 154.645 154.04 154.277L149.28 121.772C149.141 120.96 148.721 120.22 148.092 119.678C147.462 119.137 146.662 118.826 145.826 118.798Z" fill="#0059D2"/>
<path opacity="0.2" d="M127.894 123.286C128.164 122.833 128.307 122.318 128.31 121.793C128.312 121.269 128.174 120.752 127.909 120.297C127.644 119.842 127.262 119.463 126.801 119.2C126.34 118.937 125.816 118.798 125.283 118.798H88.0261C87.6457 118.789 87.2681 118.864 86.9206 119.017C86.5731 119.169 86.2645 119.396 86.0171 119.681C85.7697 119.966 85.5897 120.301 85.4903 120.663C85.3908 121.024 85.3743 121.403 85.4421 121.772L90.2021 154.277C90.3412 155.089 90.7612 155.828 91.3908 156.37C92.0203 156.912 92.8208 157.223 93.6565 157.25H104.4C105.412 157.25 106.405 156.989 107.282 156.493C108.158 155.997 108.888 155.284 109.398 154.424L127.894 123.286Z" fill="white"/>
</svg>
