<svg width="30" height="30" viewBox="0 0 30 30" fill="none" xmlns="http://www.w3.org/2000/svg">
<path d="M5.32497 12.6837C4.98115 15.3157 4.77628 17.9639 4.71122 20.6175C8.3097 22.1206 11.7552 23.9667 15 26.13C18.2452 23.9666 21.6911 22.1206 25.29 20.6175C25.2249 17.9639 25.02 15.3157 24.6762 12.6837M24.6762 12.6837C25.77 12.3162 26.8787 11.9762 27.9987 11.6662C23.9194 8.80652 19.5649 6.36106 15 4.36621C10.435 6.36148 6.08046 8.80735 2.00122 11.6675C3.11782 11.9757 4.22574 12.3146 5.32372 12.6837C8.65954 13.8051 11.8961 15.2024 15 16.8612C18.1034 15.2025 21.3408 13.8052 24.6762 12.6837ZM8.43747 18.75C8.68611 18.75 8.92457 18.6512 9.10038 18.4754C9.2762 18.2996 9.37497 18.0611 9.37497 17.8125C9.37497 17.5638 9.2762 17.3254 9.10038 17.1495C8.92457 16.9737 8.68611 16.875 8.43747 16.875C8.18883 16.875 7.95037 16.9737 7.77456 17.1495C7.59874 17.3254 7.49997 17.5638 7.49997 17.8125C7.49997 18.0611 7.59874 18.2996 7.77456 18.4754C7.95037 18.6512 8.18883 18.75 8.43747 18.75ZM8.43747 18.75V14.1562C10.5584 12.8379 12.7491 11.6353 15 10.5537M6.24122 24.9912C6.93869 24.2955 7.49177 23.4687 7.86868 22.5585C8.24558 21.6483 8.43889 20.6726 8.43747 19.6875V17.8125" stroke="#407BFF" stroke-width="1.5" stroke-linecap="round" stroke-linejoin="round"/>
</svg>
