<svg width="382" height="315" viewBox="0 0 382 315" fill="none" xmlns="http://www.w3.org/2000/svg">
<path d="M42.3866 167.718C42.3866 167.718 44.1591 222.726 90.0831 259.398C136.007 296.07 199.648 298.691 251.165 302.182C302.681 305.674 342.257 276.496 348.193 232.414C354.129 188.331 314.791 175.389 293.429 125.201C272.068 75.0143 274.001 58.5195 228.81 27.6539C183.62 -3.21169 112.919 15.7431 75.8574 68.6043C38.7958 121.465 42.3866 167.718 42.3866 167.718Z" fill="#0059D2"/>
<path opacity="0.7" d="M42.3866 167.718C42.3866 167.718 44.1591 222.726 90.0831 259.398C136.007 296.07 199.648 298.691 251.165 302.182C302.681 305.674 342.257 276.496 348.193 232.414C354.129 188.331 314.791 175.389 293.429 125.201C272.068 75.0143 274.001 58.5195 228.81 27.6539C183.62 -3.21169 112.919 15.7431 75.8574 68.6043C38.7958 121.465 42.3866 167.718 42.3866 167.718Z" fill="white"/>
<path d="M63.878 95.8713V76.183C63.878 62.2477 75.4602 50.9099 89.6936 50.9099C103.927 50.9099 115.509 62.2477 115.509 76.183V95.8713H125.8V76.183C125.8 56.6934 109.603 40.8328 89.6936 40.8328C69.7837 40.8328 53.5869 56.6934 53.5869 76.183V95.8713H63.878Z" stroke="#263238" stroke-width="0.891086" stroke-linecap="round" stroke-linejoin="round"/>
<path d="M128.596 96.009H49.7668V161.216H128.596V96.009Z" stroke="#263238" stroke-width="0.891086" stroke-linecap="round" stroke-linejoin="round"/>
<path d="M97.3792 123.093C97.3126 120.861 96.3791 118.742 94.7766 117.187C93.1742 115.631 91.0289 114.761 88.7957 114.761C86.5625 114.761 84.4172 115.631 82.8148 117.187C81.2123 118.742 80.2788 120.861 80.2122 123.093C80.2214 124.619 80.6458 126.113 81.4399 127.416C82.234 128.719 83.3678 129.781 84.7198 130.488L83.2758 145.295H94.3156L92.8716 130.488C94.2236 129.781 95.3574 128.719 96.1515 127.416C96.9456 126.113 97.37 124.619 97.3792 123.093Z" stroke="#263238" stroke-width="0.891086" stroke-linecap="round" stroke-linejoin="round"/>
<path d="M177.737 163.333L158.11 162.042V161.721L155.695 161.881L153.289 161.721V162.042L133.662 163.333L119.184 282.364H133.662L155.214 187.46H156.184L177.737 282.364H192.215L177.737 163.333Z" fill="#263238" stroke="#263238" stroke-width="0.891086" stroke-linecap="round" stroke-linejoin="round"/>
<path d="M119.184 282.356L115.647 287.827L104.706 292.655C104.13 292.974 103.648 293.439 103.31 294.004C102.972 294.569 102.789 295.213 102.781 295.872V300.051H133.983C134.167 297.803 134.167 295.544 133.983 293.297C133.662 290.08 133.662 282.356 133.662 282.356H119.184Z" fill="#4C4C4C" stroke="#263238" stroke-width="0.891086" stroke-linecap="round" stroke-linejoin="round"/>
<path d="M102.781 296.513V300.051H133.983C133.983 300.051 134.128 298.523 134.128 296.513H102.781Z" fill="#263238" stroke="#263238" stroke-width="0.891086" stroke-linecap="round" stroke-linejoin="round"/>
<path d="M192.154 282.356L195.691 287.827L206.631 292.655C207.208 292.974 207.69 293.439 208.028 294.004C208.366 294.569 208.548 295.213 208.557 295.872V300.051H177.355C177.171 297.803 177.171 295.544 177.355 293.297C177.676 290.08 177.676 282.356 177.676 282.356H192.154Z" fill="#4C4C4C" stroke="#263238" stroke-width="0.891086" stroke-linecap="round" stroke-linejoin="round"/>
<path d="M208.572 296.513V300.051H177.355C177.355 300.051 177.217 298.523 177.21 296.513H208.572Z" fill="#263238" stroke="#263238" stroke-width="0.891086" stroke-linecap="round" stroke-linejoin="round"/>
<path d="M125.35 107.958C125.35 107.958 102.43 140.168 102.43 142.529C102.43 144.89 106.074 163.119 111.865 164.83C117.656 166.542 120.873 163.547 121.942 157.542C123.012 151.537 119.368 142.957 119.368 142.957L130.064 133.308L125.35 107.958Z" fill="#0059D2" stroke="#263238" stroke-width="0.891086" stroke-linecap="round" stroke-linejoin="round"/>
<path d="M120.903 156.686C120.903 156.686 127.549 155.609 129.268 156.037C130.987 156.465 132.271 160.544 132.271 160.544C132.271 160.544 132.913 166.549 131.836 167.833C130.758 169.116 125.617 170.621 123.477 171.049C121.338 171.477 116.823 166.549 115.073 163.547C113.324 160.544 116.395 155.395 120.903 156.686Z" fill="#CCCCCC" stroke="#263238" stroke-width="0.891086" stroke-linecap="round" stroke-linejoin="round"/>
<path d="M130.17 106.499L125.35 107.958L132.944 158.649H178.081L184.949 108.248L178.814 105.911L156.169 100.945L130.17 106.499Z" fill="#0059D2" stroke="#263238" stroke-width="0.891086" stroke-linecap="round" stroke-linejoin="round"/>
<path d="M180.564 123.444L179.548 130.748L171.656 132.643L163.618 129.434L164.207 122.856L180.564 123.444Z" fill="#263238" stroke="#263238" stroke-width="0.891086" stroke-linecap="round" stroke-linejoin="round"/>
<path d="M172.167 130.748C172.935 130.748 173.558 130.125 173.558 129.358C173.558 128.59 172.935 127.967 172.167 127.967C171.399 127.967 170.777 128.59 170.777 129.358C170.777 130.125 171.399 130.748 172.167 130.748Z" fill="#4C4C4C" stroke="#263238" stroke-width="0.891086" stroke-linecap="round" stroke-linejoin="round"/>
<path d="M151.348 110.296L155.589 115.262L150.179 149.734L155.879 158.795L162.602 149.298L156.903 115.407L161.723 110.732L156.612 104.161L151.348 110.296Z" fill="#263238" stroke="#263238" stroke-width="0.891086" stroke-linecap="round" stroke-linejoin="round"/>
<path d="M147.261 101.678L127.833 106.499L128.421 108.837L147.406 103.573L147.261 101.678Z" fill="#263238" stroke="#263238" stroke-width="0.891086" stroke-linecap="round" stroke-linejoin="round"/>
<path d="M163.183 101.09L182.612 105.91L182.031 108.248L163.038 102.992L163.183 101.09Z" fill="#263238" stroke="#263238" stroke-width="0.891086" stroke-linecap="round" stroke-linejoin="round"/>
<path d="M182.596 105.911C182.596 105.911 189.946 107.569 194.446 110.143C198.946 112.718 200.023 118.509 197.448 124.942C194.874 131.375 186.943 130.519 183.299 128.762C179.655 127.005 178.577 120.618 179.219 117.829" fill="#0059D2"/>
<path d="M182.596 105.911C182.596 105.911 189.946 107.569 194.446 110.143C198.946 112.718 200.023 118.509 197.448 124.942C194.874 131.375 186.943 130.519 183.299 128.762C179.655 127.005 178.577 120.618 179.219 117.829" stroke="#263238" stroke-width="0.891086" stroke-linecap="round" stroke-linejoin="round"/>
<path d="M148.14 99.1953L145.947 100.655L146.528 115.407L156.024 108.692L165.956 115.553L166.835 100.945L164.207 98.7522L148.14 99.1953Z" fill="#0059D2" stroke="#263238" stroke-width="0.891086" stroke-linecap="round" stroke-linejoin="round"/>
<path d="M167.316 81.646C167.316 81.646 172.71 80.3319 173.726 74.9381C174.742 69.5443 165.024 62.9815 158.286 61.8202C151.547 60.6589 141.669 67.6495 140.064 72.4627C138.46 77.2759 144.725 82.0815 151.432 83.1053C158.14 84.129 167.316 81.646 167.316 81.646Z" fill="#263238" stroke="#263238" stroke-width="0.891086" stroke-linecap="round" stroke-linejoin="round"/>
<path d="M147.207 82.5246C147.207 82.5246 144.289 78.0017 143.563 81.9363C142.837 85.8709 145.893 87.6205 147.207 87.4753C148.521 87.3302 147.207 82.5246 147.207 82.5246Z" fill="#CCCCCC" stroke="#263238" stroke-width="0.891086" stroke-linecap="round" stroke-linejoin="round"/>
<path d="M166.162 82.5246C166.162 82.5246 169.081 78.0017 169.807 81.9363C170.532 85.8709 167.515 87.6205 166.162 87.4753C164.81 87.3302 166.162 82.5246 166.162 82.5246Z" fill="#CCCCCC" stroke="#263238" stroke-width="0.891086" stroke-linecap="round" stroke-linejoin="round"/>
<path d="M147.849 91.4482V101.09L156.024 108.692L165.23 100.8V91.7462L147.849 91.4482Z" fill="#CCCCCC" stroke="#263238" stroke-width="0.891086" stroke-linecap="round" stroke-linejoin="round"/>
<path d="M146.627 79.6062C146.627 79.6062 146.184 88.6443 146.917 91.5628C147.651 94.4813 152.456 100.601 156.246 101.915C160.035 103.229 165.284 95.3522 166.453 92.747C167.622 90.1417 167.178 79.0408 167.178 79.0408C167.178 79.0408 165.582 75.2208 162.373 74.0901C159.164 72.9594 149.247 70.8966 146.627 79.6062Z" fill="#CCCCCC" stroke="#263238" stroke-width="0.891086" stroke-linecap="round" stroke-linejoin="round"/>
<path d="M152.685 84.404C152.685 85.0916 152.372 85.6493 151.982 85.6493C151.593 85.6493 151.28 85.0916 151.28 84.404C151.28 83.7164 151.593 83.1587 151.982 83.1587C152.372 83.1587 152.685 83.7164 152.685 84.404Z" fill="#263238"/>
<path d="M161.632 84.404C161.632 85.0916 161.319 85.6493 160.929 85.6493C160.539 85.6493 160.226 85.0916 160.226 84.404C160.226 83.7164 160.539 83.1587 160.929 83.1587C161.319 83.1587 161.632 83.7164 161.632 84.404Z" fill="#263238"/>
<path d="M154.206 87.8878C154.062 87.8535 153.912 87.8522 153.768 87.884C153.624 87.9158 153.489 87.9799 153.373 88.0714C153.257 88.1629 153.163 88.2796 153.099 88.4125C153.034 88.5454 153.001 88.6913 153.001 88.839C153.001 88.9867 153.034 89.1326 153.099 89.2655C153.163 89.3984 153.257 89.5151 153.373 89.6066C153.489 89.6981 153.624 89.7622 153.768 89.794C153.912 89.8258 154.062 89.8245 154.206 89.7902C154.513 89.7967 154.812 89.6968 155.054 89.5075C155.28 89.773 155.559 89.9873 155.874 90.1361C156.19 90.2849 156.533 90.3649 156.881 90.3707C157.23 90.3765 157.575 90.3079 157.895 90.1696C158.215 90.0313 158.502 89.8264 158.736 89.5686C158.964 89.7161 159.229 89.7932 159.5 89.7902C159.644 89.8245 159.794 89.8258 159.938 89.794C160.082 89.7622 160.217 89.6981 160.333 89.6066C160.449 89.5151 160.543 89.3984 160.607 89.2655C160.672 89.1326 160.705 88.9867 160.705 88.839C160.705 88.6913 160.672 88.5454 160.607 88.4125C160.543 88.2796 160.449 88.1629 160.333 88.0714C160.217 87.9799 160.082 87.9158 159.938 87.884C159.794 87.8522 159.644 87.8535 159.5 87.8878" fill="#CCCCCC"/>
<path d="M154.206 87.8878C154.062 87.8535 153.912 87.8522 153.768 87.884C153.624 87.9158 153.489 87.9799 153.373 88.0714C153.257 88.1629 153.163 88.2796 153.099 88.4125C153.034 88.5454 153.001 88.6913 153.001 88.839C153.001 88.9867 153.034 89.1326 153.099 89.2655C153.163 89.3984 153.257 89.5151 153.373 89.6066C153.489 89.6981 153.624 89.7622 153.768 89.794C153.912 89.8258 154.062 89.8245 154.206 89.7902C154.513 89.7967 154.812 89.6968 155.054 89.5075C155.28 89.773 155.559 89.9873 155.874 90.1361C156.19 90.2849 156.533 90.3649 156.881 90.3707C157.23 90.3765 157.575 90.3079 157.895 90.1696C158.215 90.0313 158.502 89.8264 158.736 89.5686C158.964 89.7161 159.229 89.7932 159.5 89.7902C159.644 89.8245 159.794 89.8258 159.938 89.794C160.082 89.7622 160.217 89.6981 160.333 89.6066C160.449 89.5151 160.543 89.3984 160.607 89.2655C160.672 89.1326 160.705 88.9867 160.705 88.839C160.705 88.6913 160.672 88.5454 160.607 88.4125C160.543 88.2796 160.449 88.1629 160.333 88.0714C160.217 87.9799 160.082 87.9158 159.938 87.884C159.794 87.8522 159.644 87.8535 159.5 87.8878" stroke="#263238" stroke-width="0.891086" stroke-linecap="round" stroke-linejoin="round"/>
<path d="M155.367 93.8701H158.416" stroke="#263238" stroke-width="0.891086" stroke-linecap="round" stroke-linejoin="round"/>
<path d="M146.291 81.7989C146.291 81.7989 146.398 84.7327 147.376 83.9687C148.354 83.2047 148.674 78.2234 147.811 77.574C146.948 76.9246 146.291 80.2862 146.291 81.7989Z" fill="#263238" stroke="#263238" stroke-width="0.891086" stroke-linecap="round" stroke-linejoin="round"/>
<path d="M165.108 81.7989C165.108 81.7989 165.223 84.7327 166.193 83.9687C167.163 83.2047 167.499 78.2234 166.629 77.574C165.758 76.9246 165.108 80.2862 165.108 81.7989Z" fill="#263238" stroke="#263238" stroke-width="0.891086" stroke-linecap="round" stroke-linejoin="round"/>
<path d="M146.291 79.4151C146.291 79.4151 146.619 79.6825 146.612 79.8124C148.025 80.5764 151.272 81.9822 156.544 82.2649C160.282 82.394 163.984 81.4871 167.24 79.6443C167.24 79.2547 167.24 79.0255 167.24 79.0179C167.11 75.6028 164.573 73.3261 161.433 72.4551C158.347 71.6053 155.069 71.7686 152.082 72.9211C150.567 73.4924 149.231 74.4545 148.208 75.7097C147.819 76.1376 145.756 78.9873 146.291 79.4151Z" fill="#4C4C4C" stroke="#263238" stroke-width="0.891086" stroke-linecap="round" stroke-linejoin="round"/>
<path d="M146.627 79.6062C149.885 80.3268 153.231 80.5713 156.559 80.332C162.831 80.0417 167.194 79.6062 167.194 79.6062C164.311 82.3083 160.591 83.9422 156.651 84.2361C154.726 84.361 152.801 84.0029 151.051 83.1943C149.3 82.3857 147.779 81.1523 146.627 79.6062Z" fill="#4C4C4C" stroke="#263238" stroke-width="0.891086" stroke-linecap="round" stroke-linejoin="round"/>
<path d="M130.614 123.444L131.63 130.748L139.522 132.643L147.551 129.434L146.971 122.856L130.614 123.444Z" fill="#263238" stroke="#263238" stroke-width="0.891086" stroke-linecap="round" stroke-linejoin="round"/>
<path d="M139.01 130.748C139.778 130.748 140.4 130.125 140.4 129.358C140.4 128.59 139.778 127.967 139.01 127.967C138.242 127.967 137.619 128.59 137.619 129.358C137.619 130.125 138.242 130.748 139.01 130.748Z" fill="#4C4C4C" stroke="#263238" stroke-width="0.891086" stroke-linecap="round" stroke-linejoin="round"/>
<path d="M178.593 158.184H132.271V165.472H178.593V158.184Z" fill="#4C4C4C" stroke="#263238" stroke-width="0.891086" stroke-linecap="round" stroke-linejoin="round"/>
<path d="M141.172 158.611H131.095C129.968 158.611 129.055 159.525 129.055 160.651V165.579C129.055 166.706 129.968 167.619 131.095 167.619H141.172C142.299 167.619 143.212 166.706 143.212 165.579V160.651C143.212 159.525 142.299 158.611 141.172 158.611Z" fill="#4C4C4C" stroke="#263238" stroke-width="0.891086" stroke-linecap="round" stroke-linejoin="round"/>
<path d="M178.058 158.611H167.981C166.854 158.611 165.941 159.525 165.941 160.651V165.579C165.941 166.706 166.854 167.619 167.981 167.619H178.058C179.184 167.619 180.098 166.706 180.098 165.579V160.651C180.098 159.525 179.184 158.611 178.058 158.611Z" fill="#4C4C4C" stroke="#263238" stroke-width="0.891086" stroke-linecap="round" stroke-linejoin="round"/>
<path d="M161.219 158.611H151.142V165.044H161.219V158.611Z" fill="white" stroke="#263238" stroke-width="0.891086" stroke-linecap="round" stroke-linejoin="round"/>
<path d="M119.398 142.957C119.398 142.957 112.965 142.529 110.604 138.449" stroke="#263238" stroke-width="0.891086" stroke-linecap="round" stroke-linejoin="round"/>
<path d="M190.924 124.086C196.789 124.086 201.543 119.092 201.543 112.932C201.543 106.771 196.789 101.777 190.924 101.777C185.059 101.777 180.304 106.771 180.304 112.932C180.304 119.092 185.059 124.086 190.924 124.086Z" fill="#0059D2" stroke="#263238" stroke-width="0.891086" stroke-linecap="round" stroke-linejoin="round"/>
<path d="M190.924 114.735C195.514 114.735 199.236 111.4 199.236 107.286C199.236 103.172 195.514 99.8369 190.924 99.8369C186.333 99.8369 182.611 103.172 182.611 107.286C182.611 111.4 186.333 114.735 190.924 114.735Z" fill="#0059D2" stroke="#263238" stroke-width="0.891086" stroke-linecap="round" stroke-linejoin="round"/>
<path d="M190.924 109.257C195.514 109.257 199.236 105.922 199.236 101.808C199.236 97.6942 195.514 94.3591 190.924 94.3591C186.333 94.3591 182.611 97.6942 182.611 101.808C182.611 105.922 186.333 109.257 190.924 109.257Z" fill="#CCCCCC" stroke="#263238" stroke-width="0.891086" stroke-linecap="round" stroke-linejoin="round"/>
<path d="M177.569 85.7487C177.569 85.7487 177.714 96.7351 178.272 99.9744C178.83 103.214 181.091 107.439 184.193 107.439C186.259 107.388 188.304 107.009 190.251 106.316C190.251 106.316 193.911 108.287 197.433 107.721C200.955 107.156 200.39 102.228 200.39 100.081C200.39 97.9345 199.97 82.051 199.97 82.051C199.97 82.051 200.252 80.523 198.839 80.225C198.146 80.0689 197.44 79.9743 196.73 79.9423V76.5578C196.47 76.1702 196.109 75.8608 195.687 75.663C195.264 75.4651 194.795 75.3862 194.331 75.4347C192.505 75.4347 192.36 75.8549 192.36 75.8549V72.7531C192.36 72.7531 190.832 70.2854 188.838 71.4849C188.436 71.7156 188.098 72.0421 187.852 72.4353C187.607 72.8285 187.463 73.2762 187.432 73.7387L187.287 76.703C187.287 76.703 183.91 75.4347 183.628 77.4059C183.345 79.377 182.78 91.5246 182.78 91.5246C182.579 89.6146 182.203 87.7271 181.656 85.8863C180.954 84.0527 177.569 84.0527 177.569 85.7487Z" fill="#CCCCCC" stroke="#263238" stroke-width="0.891086" stroke-linecap="round" stroke-linejoin="round"/>
<path d="M187.287 76.7334L187.57 89.6908" stroke="#263238" stroke-width="0.891086" stroke-linecap="round" stroke-linejoin="round"/>
<path d="M192.36 75.8855L192.505 89.8285" stroke="#263238" stroke-width="0.891086" stroke-linecap="round" stroke-linejoin="round"/>
<path d="M196.73 79.9729L196.448 89.691" stroke="#263238" stroke-width="0.891086" stroke-linecap="round" stroke-linejoin="round"/>
<path d="M185.461 89.5532L198.281 90.1109" stroke="#263238" stroke-width="0.891086" stroke-linecap="round" stroke-linejoin="round"/>
<path d="M182.779 91.5244C182.783 92.0561 182.91 92.5797 183.15 93.0542C183.39 93.5287 183.736 93.9412 184.162 94.2595C185.553 95.1305 188.685 97.3919 189.029 101.044" stroke="#263238" stroke-width="0.891086" stroke-linecap="round" stroke-linejoin="round"/>
<path d="M267.4 56.9993V58.6724H263.328V64.6011H268.332V66.3124H261.456V49.6572H268.332V51.3457H263.328V57.0298L267.4 56.9993Z" fill="#263238"/>
<path d="M273.741 49.6267C276.354 49.6267 277.454 50.9561 277.454 53.4467V54.8066C277.454 56.6402 276.812 57.7786 275.384 58.2293C276.912 58.6801 277.477 59.9178 277.477 61.7055V64.3031C277.422 64.9847 277.535 65.6692 277.806 66.2972H275.926C275.666 65.6585 275.561 64.9673 275.621 64.2802V61.6597C275.621 59.7803 274.742 59.1843 273.191 59.1843H271.885V66.3125H270.028V49.6573L273.741 49.6267ZM273.26 57.4806C274.742 57.4806 275.621 56.9993 275.621 55.1886V53.5919C275.621 52.0639 275.07 51.2999 273.695 51.2999H271.885V57.4653L273.26 57.4806Z" fill="#263238"/>
<path d="M283.115 49.6267C285.736 49.6267 286.828 50.9561 286.828 53.4467V54.8066C286.828 56.6402 286.187 57.7786 284.758 58.2293C286.286 58.6801 286.851 59.9178 286.851 61.7055V64.3031C286.795 64.9855 286.911 65.671 287.188 66.2972H285.308C285.044 65.6595 284.937 64.9679 284.995 64.2802V61.6597C284.995 59.7803 284.116 59.1843 282.565 59.1843H281.259V66.3125H279.402V49.6573L283.115 49.6267ZM282.68 57.4806C284.154 57.4806 285.033 56.9993 285.033 55.1886V53.5919C285.033 52.0639 284.491 51.2999 283.108 51.2999H281.297V57.4653L282.68 57.4806Z" fill="#263238"/>
<path d="M288.639 53.6455C288.639 51.1013 289.9 49.4587 292.459 49.4587C295.019 49.4587 296.279 51.1013 296.279 53.6455V62.2634C296.279 64.7846 295.019 66.4501 292.459 66.4501C289.9 66.4501 288.639 64.7846 288.639 62.2634V53.6455ZM290.473 62.3551C290.473 63.8831 291.115 64.7617 292.444 64.7617C293.773 64.7617 294.423 63.8831 294.423 62.3551V53.5538C294.423 52.0258 293.804 51.1472 292.444 51.1472C291.084 51.1472 290.473 52.0487 290.473 53.5538V62.3551Z" fill="#263238"/>
<path d="M301.78 49.6267C304.4 49.6267 305.493 50.9561 305.493 53.4467V54.8066C305.493 56.6402 304.851 57.7786 303.423 58.2293C304.951 58.6801 305.516 59.9178 305.516 61.7055V64.3031C305.46 64.9855 305.575 65.671 305.852 66.2972H303.973C303.709 65.6595 303.601 64.9679 303.659 64.2802V61.6597C303.659 59.7803 302.781 59.1843 301.23 59.1843H299.923V66.3125H298.036V49.6573L301.78 49.6267ZM301.306 57.4806C302.781 57.4806 303.659 56.9993 303.659 55.1886V53.5919C303.659 52.0639 303.117 51.2999 301.734 51.2999H299.923V57.4653L301.306 57.4806Z" fill="#263238"/>
<path d="M251.646 160.957V162.645H247.826V169.857H245.97V153.202H252.586V154.891H247.826V160.957H251.646Z" fill="#263238"/>
<path d="M253.9 157.228C253.9 154.684 255.168 153.042 257.72 153.042C260.272 153.042 261.54 154.684 261.54 157.228V165.846C261.54 168.368 260.28 170.033 257.72 170.033C255.161 170.033 253.9 168.368 253.9 165.846V157.228ZM255.734 165.938C255.734 167.466 256.376 168.345 257.713 168.345C259.05 168.345 259.684 167.466 259.684 165.938V157.129C259.684 155.601 259.065 154.723 257.713 154.723C256.36 154.723 255.734 155.624 255.734 157.129V165.938Z" fill="#263238"/>
<path d="M267.018 153.202C269.631 153.202 270.731 154.532 270.731 157.022V158.382C270.731 160.216 270.089 161.354 268.661 161.805C270.189 162.256 270.754 163.493 270.754 165.281V167.879C270.698 168.561 270.813 169.246 271.09 169.873H269.211C268.943 169.236 268.835 168.543 268.897 167.856V165.235C268.897 163.356 268.019 162.76 266.468 162.76H265.161V169.873H263.305V153.217L267.018 153.202ZM266.544 161.048C268.019 161.048 268.897 160.567 268.897 158.756V157.16C268.897 155.632 268.347 154.868 266.972 154.868H265.161V161.048H266.544Z" fill="#263238"/>
<path d="M276.415 153.202C279.013 153.202 280.037 154.44 280.037 156.892V157.656C280.037 159.421 279.533 160.514 278.081 160.965C279.701 161.423 280.319 162.706 280.319 164.54V165.938C280.319 168.444 279.105 169.842 276.499 169.842H272.679V153.187L276.415 153.202ZM275.965 160.269C277.439 160.269 278.203 159.796 278.203 158.054V157.076C278.203 155.601 277.699 154.891 276.37 154.891H274.536V160.239L275.965 160.269ZM276.515 168.169C277.867 168.169 278.486 167.459 278.486 165.877V164.403C278.486 162.546 277.722 161.927 276.156 161.927H274.536V168.138L276.515 168.169Z" fill="#263238"/>
<path d="M283.864 153.202V169.857H282.008V153.202H283.864Z" fill="#263238"/>
<path d="M289.671 153.202C292.268 153.202 293.491 154.73 293.491 157.343V165.747C293.491 168.299 292.299 169.865 289.671 169.865H285.774V153.21L289.671 153.202ZM289.671 168.169C291.008 168.169 291.65 167.336 291.65 165.816V157.228C291.65 155.7 291.008 154.875 289.648 154.875H287.646V168.154L289.671 168.169Z" fill="#263238"/>
<path d="M299.098 153.202C301.688 153.202 302.88 154.73 302.88 157.343V165.747C302.88 168.299 301.688 169.865 299.098 169.865H295.194V153.21L299.098 153.202ZM299.098 168.169C300.428 168.169 301.069 167.336 301.069 165.816V157.228C301.069 155.7 300.428 154.875 299.075 154.875H297.074V168.154L299.098 168.169Z" fill="#263238"/>
<path d="M310.543 160.575V162.24H306.471V168.169H311.475V169.857H304.599V153.202H311.475V154.891H306.471V160.575H310.543Z" fill="#263238"/>
<path d="M314.829 169.857H313.164V153.202H315.532L319.352 165.243V153.202H320.995V169.857H319.062L314.806 156.388L314.829 169.857Z" fill="#263238"/>
<path d="M234.197 117.699L251.196 77.5051H261.395V117.699H265.811V126.195H261.395V136.983H252.227V126.195H234.197V117.699ZM252.212 117.699V95.3445L242.784 117.692L252.212 117.699Z" fill="#263238"/>
<path d="M269.295 91.7767C269.295 82.2649 274.306 76.8252 283.482 76.8252C292.658 76.8252 297.677 82.2649 297.677 91.7767V122.711C297.677 132.23 292.658 137.663 283.482 137.663C274.306 137.663 269.295 132.23 269.295 122.711V91.7767ZM278.638 123.307C278.638 127.555 280.51 129.167 283.482 129.167C286.454 129.167 288.326 127.555 288.326 123.307V91.219C288.326 86.9635 286.462 85.3514 283.482 85.3514C280.503 85.3514 278.638 86.9635 278.638 91.219V123.307Z" fill="#263238"/>
<path d="M321.72 92.1205C321.72 86.7725 319.856 85.3209 316.877 85.3209C313.897 85.3209 312.033 86.9329 312.033 91.1884V95.0084H303.201V91.7767C303.201 82.2649 307.953 76.8252 317.136 76.8252C326.32 76.8252 331.072 82.2649 331.072 91.7767V93.3047C331.072 99.6764 329.032 103.672 324.524 105.529C329.2 107.569 331.072 111.984 331.072 118.02V122.696C331.072 132.215 326.312 137.647 317.136 137.647C307.961 137.647 303.201 132.215 303.201 122.696V117.768H312.033V123.292C312.033 127.54 313.905 129.152 316.877 129.152C319.849 129.152 321.72 127.708 321.72 122.444V117.768C321.72 112.244 319.856 110.204 315.608 110.204H312.476V101.724H316.128C319.612 101.724 321.736 100.196 321.736 95.4362L321.72 92.1205Z" fill="#263238"/>
<path d="M66.3688 299.714H55.4741L69.9978 198.477H80.8924L66.3688 299.714Z" fill="#263238" stroke="#263238" stroke-width="0.891086" stroke-miterlimit="10"/>
<path d="M88.1579 299.714H99.0449L84.5213 198.477H73.6343L88.1579 299.714Z" fill="white" stroke="#263238" stroke-width="0.891086" stroke-miterlimit="10"/>
<path d="M220.933 299.714H210.046L224.562 198.477H235.457L220.933 299.714Z" fill="#263238" stroke="#263238" stroke-width="0.891086" stroke-miterlimit="10"/>
<path d="M242.723 299.714H253.61L239.086 198.477H228.199L242.723 299.714Z" fill="white" stroke="#263238" stroke-width="0.891086" stroke-miterlimit="10"/>
<path d="M250.332 182.601H42.5776V202.74H250.332V182.601Z" fill="#0059D2" stroke="#263238" stroke-width="0.891086" stroke-miterlimit="10"/>
<path d="M255.397 182.601H47.6428V202.74H255.397V182.601Z" fill="#0059D2" stroke="#263238" stroke-width="0.891086" stroke-miterlimit="10"/>
<path d="M51.043 202.74H68.6761L77.7906 182.601H60.1575L51.043 202.74Z" fill="#263238"/>
<path d="M120.842 182.601H103.209L94.0942 202.74H111.727L120.842 182.601Z" fill="#263238"/>
<path d="M249.988 182.601H232.355L223.248 202.74H240.881L249.988 182.601Z" fill="#263238"/>
<path d="M206.945 182.601H189.304L180.197 202.74H197.83L206.945 182.601Z" fill="#263238"/>
<path d="M163.893 182.601H146.26L137.146 202.74H154.779L163.893 182.601Z" fill="#263238"/>
<path d="M254.259 191.532H219.879" stroke="#263238" stroke-width="0.891086" stroke-miterlimit="10"/>
<path d="M253.656 194.901H248.231" stroke="#263238" stroke-width="0.891086" stroke-miterlimit="10"/>
<path d="M46.7642 194.061H81.1442" stroke="#263238" stroke-width="0.891086" stroke-miterlimit="10"/>
<path d="M47.3682 190.271H90.7939" stroke="#263238" stroke-width="0.891086" stroke-miterlimit="10"/>
<path d="M312.101 295.299H253.167V299.722H312.101V295.299Z" fill="#263238" stroke="#263238" stroke-width="0.891086" stroke-linecap="round" stroke-linejoin="round"/>
<path d="M302.154 295.176H263.114L278.417 211.931H286.851L302.154 295.176Z" fill="#0059D2" stroke="#263238" stroke-width="0.891086" stroke-linecap="round" stroke-linejoin="round"/>
<path d="M272.733 242.873H292.543L290.641 232.559H274.627L272.733 242.873Z" fill="white" stroke="#263238" stroke-width="0.891086" stroke-linecap="round" stroke-linejoin="round"/>
<path d="M296.287 281.279L297.265 286.971" stroke="#263238" stroke-width="0.891086" stroke-linecap="round" stroke-linejoin="round"/>
<path d="M285.14 216.53L295.057 274.12" stroke="#263238" stroke-width="0.891086" stroke-linecap="round" stroke-linejoin="round"/>
<path d="M343.808 299.714H349.087" stroke="#263238" stroke-width="0.891086" stroke-linecap="round" stroke-linejoin="round"/>
<path d="M30.0789 299.714H336.435" stroke="#263238" stroke-width="0.891086" stroke-linecap="round" stroke-linejoin="round"/>
</svg>
