<svg width="19" height="25" viewBox="0 0 19 25" fill="none" xmlns="http://www.w3.org/2000/svg">
<path d="M13.7187 5.75C13.7187 6.86888 13.2742 7.94194 12.4831 8.73311C11.6919 9.52428 10.6189 9.96875 9.49997 9.96875C8.38109 9.96875 7.30804 9.52428 6.51687 8.73311C5.7257 7.94194 5.28122 6.86888 5.28122 5.75C5.28122 4.63112 5.7257 3.55806 6.51687 2.76689C7.30804 1.97572 8.38109 1.53125 9.49997 1.53125C10.6189 1.53125 11.6919 1.97572 12.4831 2.76689C13.2742 3.55806 13.7187 4.63112 13.7187 5.75ZM1.0636 21.6328C1.09975 19.4191 2.00448 17.3084 3.58267 15.7558C5.16087 14.2032 7.28607 13.333 9.49997 13.333C11.7139 13.333 13.8391 14.2032 15.4173 15.7558C16.9955 17.3084 17.9002 19.4191 17.9363 21.6328C15.2897 22.8464 12.4116 23.4727 9.49997 23.4688C6.48947 23.4688 3.63197 22.8118 1.0636 21.6328Z" stroke="#9DA0AA" stroke-width="1.5" stroke-linecap="round" stroke-linejoin="round"/>
</svg>
