<svg
  width="24"
  height="24"
  viewBox="0 0 24 24"
  fill="none"
  xmlns="http://www.w3.org/2000/svg"
>
  <path
    d="M9.75 3.10402V8.81802C9.75 9.1135 9.69181 9.40608 9.57874 9.67906C9.46567 9.95205 9.29993 10.2001 9.091 10.409L5 14.5M9.75 3.10402C9.499 3.12702 9.249 3.15402 9 3.18602M9.75 3.10402C11.2468 2.96484 12.7532 2.96484 14.25 3.10402M5 14.5L5.77 14.307C7.863 13.7898 10.0718 14.0355 12 15C13.9282 15.9645 16.137 16.2102 18.23 15.693L19.8 15.3M5 14.5L2.798 16.703C1.565 17.934 2.147 20.02 3.865 20.313C6.509 20.765 9.227 21 12 21C14.7262 21.001 17.4476 20.7711 20.135 20.313C21.852 20.02 22.434 17.934 21.202 16.702L19.8 15.3M14.25 3.10402V8.81802C14.25 9.41502 14.487 9.98802 14.909 10.409L19.8 15.3M14.25 3.10402C14.501 3.12702 14.751 3.15402 15 3.18602"
    stroke-width="1.5"
    stroke-linecap="round"
    stroke-linejoin="round"
  />
</svg>
