<svg width="35" height="35" viewBox="0 0 35 35" fill="none" xmlns="http://www.w3.org/2000/svg">
<path d="M4.375 19.1406C4.375 18.235 5.11 17.5 6.01563 17.5H9.29688C10.2025 17.5 10.9375 18.235 10.9375 19.1406V28.9844C10.9375 29.89 10.2025 30.625 9.29688 30.625H6.01563C5.5805 30.625 5.1632 30.4522 4.85553 30.1445C4.54785 29.8368 4.375 29.4195 4.375 28.9844V19.1406ZM14.2188 12.5781C14.2188 11.6725 14.9538 10.9375 15.8594 10.9375H19.1406C20.0463 10.9375 20.7813 11.6725 20.7813 12.5781V28.9844C20.7813 29.89 20.0463 30.625 19.1406 30.625H15.8594C15.4243 30.625 15.007 30.4522 14.6993 30.1445C14.3916 29.8368 14.2188 29.4195 14.2188 28.9844V12.5781ZM24.0625 6.01563C24.0625 5.11 24.7975 4.375 25.7031 4.375H28.9844C29.89 4.375 30.625 5.11 30.625 6.01563V28.9844C30.625 29.89 29.89 30.625 28.9844 30.625H25.7031C25.268 30.625 24.8507 30.4522 24.543 30.1445C24.2354 29.8368 24.0625 29.4195 24.0625 28.9844V6.01563Z" stroke="#474E67" stroke-width="1.5" stroke-linecap="round" stroke-linejoin="round"/>
</svg>
