<svg
  width="23"
  height="24"
  viewBox="0 0 23 24"
  fill="none"
  xmlns="http://www.w3.org/2000/svg"
>
  <path
    d="M4.26 10.147C3.98494 12.2526 3.82105 14.3712 3.769 16.494C6.64778 17.6965 9.40415 19.1733 12 20.904C14.5962 19.1733 17.3529 17.6965 20.232 16.494C20.1799 14.3712 20.016 12.2526 19.741 10.147M19.741 10.147C20.616 9.85298 21.503 9.58098 22.399 9.33298C19.1356 7.04522 15.652 5.08886 12 3.49298C8.34799 5.0892 4.86439 7.04589 1.601 9.33398C2.49428 9.58058 3.38061 9.85168 4.259 10.147C6.92765 11.0441 9.51694 12.162 12 13.489C14.4827 12.162 17.0727 11.0442 19.741 10.147ZM6.75 15C6.94891 15 7.13968 14.921 7.28033 14.7803C7.42098 14.6397 7.5 14.4489 7.5 14.25C7.5 14.0511 7.42098 13.8603 7.28033 13.7197C7.13968 13.579 6.94891 13.5 6.75 13.5C6.55109 13.5 6.36032 13.579 6.21967 13.7197C6.07902 13.8603 6 14.0511 6 14.25C6 14.4489 6.07902 14.6397 6.21967 14.7803C6.36032 14.921 6.55109 15 6.75 15ZM6.75 15V11.325C8.44673 10.2703 10.1993 9.30825 12 8.44298M4.993 19.993C5.55097 19.4364 5.99344 18.775 6.29496 18.0468C6.59649 17.3187 6.75113 16.5381 6.75 15.75V14.25"
    stroke-width="1.5"
    stroke-linecap="round"
    stroke-linejoin="round"
  />
</svg>
