<svg width="16" height="18" viewBox="0 0 16 18" fill="none" xmlns="http://www.w3.org/2000/svg">
<path d="M6.40283 11.2639V14.3889C6.40283 14.8862 6.60038 15.3631 6.95201 15.7147C7.30364 16.0664 7.78055 16.2639 8.27783 16.2639H13.2778C13.7751 16.2639 14.252 16.0664 14.6037 15.7147C14.9553 15.3631 15.1528 14.8862 15.1528 14.3889L15.1528 3.13892C15.1528 2.64164 14.9553 2.16472 14.6037 1.81309C14.252 1.46146 13.7751 1.26392 13.2778 1.26392H8.27783C7.78055 1.26392 7.30364 1.46146 6.95201 1.81309C6.60038 2.16472 6.40283 2.64164 6.40283 3.13892V6.26392M9.52783 11.2639L12.0278 8.76392M12.0278 8.76392L9.52783 6.26392M12.0278 8.76392L1.40283 8.76392" stroke="white" stroke-width="1.5" stroke-linecap="round" stroke-linejoin="round"/>
</svg>
