<svg width="20" height="22" viewBox="0 0 20 22" fill="none" xmlns="http://www.w3.org/2000/svg">
<path d="M4.72 12.829C4.48 12.859 4.24 12.891 4 12.925M4.72 12.829C8.22626 12.3891 11.7737 12.3891 15.28 12.829M4.72 12.829L4.34 17M15.28 12.829C15.52 12.859 15.76 12.891 16 12.925M15.28 12.829L15.66 17L15.889 19.523C15.9032 19.6787 15.8848 19.8356 15.8349 19.9837C15.7851 20.1319 15.7049 20.268 15.5995 20.3834C15.4942 20.4989 15.3659 20.5911 15.2229 20.6542C15.0799 20.7173 14.9253 20.7499 14.769 20.75H5.231C4.569 20.75 4.051 20.182 4.111 19.523L4.34 17M4.34 17H3.25C2.65326 17 2.08097 16.7629 1.65901 16.341C1.23705 15.919 1 15.3467 1 14.75V8.456C1 7.375 1.768 6.441 2.837 6.281C3.47295 6.18587 4.11074 6.10352 4.75 6.034M15.658 17H16.749C17.0446 17.0001 17.3372 16.942 17.6103 16.829C17.8834 16.716 18.1316 16.5503 18.3406 16.3413C18.5497 16.1324 18.7155 15.8843 18.8286 15.6113C18.9418 15.3382 19 15.0456 19 14.75V8.456C19 7.375 18.232 6.441 17.163 6.281C16.5271 6.18588 15.8893 6.10353 15.25 6.034M15.25 6.034C11.7603 5.6543 8.2397 5.6543 4.75 6.034M15.25 6.034V2.375C15.25 1.754 14.746 1.25 14.125 1.25H5.875C5.254 1.25 4.75 1.754 4.75 2.375V6.034M16 9.5H16.008V9.508H16V9.5ZM13 9.5H13.008V9.508H13V9.5Z" stroke="white" stroke-width="1.5" stroke-linecap="round" stroke-linejoin="round"/>
</svg>
