<svg width="35" height="35" viewBox="0 0 35 35" fill="none" xmlns="http://www.w3.org/2000/svg">
<path d="M13.125 12.0313H10.9375C10.0673 12.0313 9.23266 12.377 8.61731 12.9923C8.00195 13.6077 7.65625 14.4423 7.65625 15.3125V28.4375C7.65625 29.3077 8.00195 30.1423 8.61731 30.7577C9.23266 31.373 10.0673 31.7188 10.9375 31.7188H24.0625C24.9327 31.7188 25.7673 31.373 26.3827 30.7577C26.998 30.1423 27.3438 29.3077 27.3438 28.4375V15.3125C27.3438 14.4423 26.998 13.6077 26.3827 12.9923C25.7673 12.377 24.9327 12.0313 24.0625 12.0313H21.875M21.875 7.65625L17.5 3.28125M17.5 3.28125L13.125 7.65625M17.5 3.28125V21.875" stroke="#474E67" stroke-width="1.5" stroke-linecap="round" stroke-linejoin="round"/>
</svg>
