<svg width="35" height="35" viewBox="0 0 35 35" fill="none" xmlns="http://www.w3.org/2000/svg">
<path d="M8.75 19.6875V5.46875M8.75 19.6875C9.33016 19.6875 9.88656 19.918 10.2968 20.3282C10.707 20.7384 10.9375 21.2948 10.9375 21.875C10.9375 22.4552 10.707 23.0116 10.2968 23.4218C9.88656 23.832 9.33016 24.0625 8.75 24.0625M8.75 19.6875C8.16984 19.6875 7.61344 19.918 7.2032 20.3282C6.79297 20.7384 6.5625 21.2948 6.5625 21.875C6.5625 22.4552 6.79297 23.0116 7.2032 23.4218C7.61344 23.832 8.16984 24.0625 8.75 24.0625M8.75 24.0625V29.5313M26.25 19.6875V5.46875M26.25 19.6875C26.8302 19.6875 27.3866 19.918 27.7968 20.3282C28.207 20.7384 28.4375 21.2948 28.4375 21.875C28.4375 22.4552 28.207 23.0116 27.7968 23.4218C27.3866 23.832 26.8302 24.0625 26.25 24.0625M26.25 19.6875C25.6698 19.6875 25.1134 19.918 24.7032 20.3282C24.293 20.7384 24.0625 21.2948 24.0625 21.875C24.0625 22.4552 24.293 23.0116 24.7032 23.4218C25.1134 23.832 25.6698 24.0625 26.25 24.0625M26.25 24.0625V29.5313M17.5 10.9375V5.46875M17.5 10.9375C18.0802 10.9375 18.6366 11.168 19.0468 11.5782C19.457 11.9884 19.6875 12.5448 19.6875 13.125C19.6875 13.7052 19.457 14.2616 19.0468 14.6718C18.6366 15.082 18.0802 15.3125 17.5 15.3125M17.5 10.9375C16.9198 10.9375 16.3634 11.168 15.9532 11.5782C15.543 11.9884 15.3125 12.5448 15.3125 13.125C15.3125 13.7052 15.543 14.2616 15.9532 14.6718C16.3634 15.082 16.9198 15.3125 17.5 15.3125M17.5 15.3125V29.5313" stroke="#474E67" stroke-width="1.5" stroke-linecap="round" stroke-linejoin="round"/>
</svg>
