<svg width="30" height="30" viewBox="0 0 30 30" fill="none" xmlns="http://www.w3.org/2000/svg">
<path d="M12.1875 3.87999V11.0225C12.1875 11.3918 12.1147 11.7576 11.9734 12.0988C11.8321 12.44 11.6249 12.7501 11.3637 13.0112L6.24997 18.125M12.1875 3.87999C11.8737 3.90874 11.5612 3.94249 11.25 3.98249M12.1875 3.87999C14.0584 3.70602 15.9415 3.70602 17.8125 3.87999M6.24997 18.125L7.21247 17.8837C9.82872 17.2372 12.5897 17.5444 15 18.75C17.4102 19.9556 20.1712 20.2627 22.7875 19.6162L24.75 19.125M6.24997 18.125L3.49747 20.8787C1.95622 22.4175 2.68372 25.025 4.83122 25.3912C8.13622 25.9562 11.5337 26.25 15 26.25C18.4077 26.2512 21.8094 25.9639 25.1687 25.3912C27.315 25.025 28.0425 22.4175 26.5025 20.8775L24.75 19.125M17.8125 3.87999V11.0225C17.8125 11.7687 18.1087 12.485 18.6362 13.0112L24.75 19.125M17.8125 3.87999C18.1262 3.90874 18.4387 3.94249 18.75 3.98249" stroke="#407BFF" stroke-width="1.5" stroke-linecap="round" stroke-linejoin="round"/>
</svg>
