<svg version="1.2" xmlns="http://www.w3.org/2000/svg" viewBox="0 0 3050 2000" width="512" height="336">
	<title>6604-ai</title>
	<style>
		.s0 { fill: #ffffff } 
		.s1 { fill: #e3eaff } 
		.s2 { fill: #2c2858 } 
		.s3 { fill: #f37a50 } 
		.s4 { fill: #f595ad } 
		.s5 { fill: #000000 } 
		.s6 { fill: #de623c } 
		.s7 { fill: #201d40 } 
		.s8 { fill: #070635 } 
		.s9 { fill: #e62552 } 
		.s10 { fill: #7f99eb } 
		.s11 { fill: #f9f93a } 
		.s12 { fill: #95a6db } 
		.s13 { fill: #4364cc } 
		.s14 { fill: #768fdb } 
		.s15 { fill: #95adf5 } 
		.s16 { fill: #8a284c } 
		.s17 { fill: #3f964f } 
		.s18 { fill: #0e6a41 } 
		.s19 { fill: #e86686 } 
		.s20 { fill: #494c7f } 
		.s21 { fill: #ffd0b7 } 
		.s22 { fill: #f5a3b7 } 
		.s23 { fill: #f7d33c } 
	</style>
	<g id="Слой 1">
		<g id="&lt;Group&gt;">
			<path id="&lt;Path&gt;" class="s0" d="m3050 2000h-3050v-2000h3050z"/>
			<path id="&lt;Path&gt;" class="s1" d="m156.5 1840.4c-235.7-353.2-101.2-708.3 170.4-909.8 276-204.9-35.6-628.7 513.7-801.2 284.2-89.2 534.2 154.1 812.7 164.7 249.6 9.4 507.9-205.1 761.3-105.7 169.5 57.2 338.9 217.8 326.3 409.8-6.6 99.2-64.4 216.7-4.5 292 252.6 318.1 226.6 596.4 127.6 945.7 0 0-2707.5 4.5-2707.5 4.5z"/>
			<g id="&lt;Group&gt;">
				<g id="&lt;Group&gt;">
					<path id="&lt;Path&gt;" class="s2" d="m1143.2 1009.1c29.6-10.3 92.5-42 62.7-84.8-29.8-42.8-42.4-24.9-31-76.4 11.5-51.4-24.8-92.4-59.9-82.5-35 9.8-44.3 38-87.1 30.4-42.8-7.6-78.8 32.1-63.1 67 15.8 35 22.5 51.8 7.2 70.9-15.3 19-83.5 39-55.7 85.4 27.9 46.4 40.9 43.8 30.8 67.3-10.1 23.5 12.3 50.7 51.8 47.4 39.4-3.2 75.3-17.7 90.2-61.6 14.9-43.8 54.1-63.1 54.1-63.1z"/>
					<path id="&lt;Path&gt;" class="s3" d="m1076.5 1759.4l-2.4 25.1 21 6.4 16.9-18.1 2.8-10.3z"/>
					<path id="&lt;Path&gt;" class="s3" d="m1142.9 1252.2c0 0 31.6 204.4 23.1 292-8.6 87.6-51.4 218.7-51.4 218.7h-38.4c0 0 0.6-15.9 2.1-68.1 2-66.6 0.1-121.3 29.1-155.7-15-65-53.6-286.9-53.6-286.9z"/>
					<path id="&lt;Path&gt;" class="s3" d="m1103.9 1287.1c0 0-10.2 188.2-41.2 270.5-79.5 54.2-151.7 80.5-199.8 99.4-2.3 0.9-11.8-34.9-11.8-34.9 53.4-34.9 100.2-97.9 154.7-89.8-9.3-60.2-18.3-215.1-18.3-215.1z"/>
					<path id="&lt;Path&gt;" class="s3" d="m1061.3 952.7v77.3c0 0 25.7 13.7 48.1 0-3.5-17.2-5.5-71.9-5.5-71.9z"/>
					<path id="&lt;Path&gt;" class="s4" d="m1015.2 994.4h128.2c0 0 23 51.7 19.9 95.9-3.1 44.3-8.7 164.8-8.7 164.8 0 0-78.7-17.9-128.9-33.4-4-90.8-31-132.2-29.1-161.7 1.8-29.5 18.6-65.6 18.6-65.6z"/>
					<g id="&lt;Group&gt;">
						<path id="&lt;Path&gt;" class="s3" d="m1142.4 885c0 43.3-26.1 78.4-58.4 78.4-32.2 0-58.3-35.1-58.3-78.4 0-43.3 26.1-78.4 58.3-78.4 32.3 0 58.4 35.1 58.4 78.4z"/>
						<path id="&lt;Path&gt;" class="s2" d="m1021.8 885c32.2-4.1 62.2-22 79.1-45.2 10.9 27.1 41.5 45.2 41.5 45.2 0 0 22.9-51.8-18.8-79.8-39.7-26.7-134.6-8.4-101.8 79.8z"/>
						<path id="&lt;Path&gt;" class="s5" d="m1059.5 901.7c-3.4 0-6.2-2.7-6.2-6.2 0-3.4 2.8-6.2 6.2-6.2 3.4 0 6.2 2.8 6.2 6.2 0 3.5-2.8 6.2-6.2 6.2z"/>
						<path id="&lt;Path&gt;" class="s5" d="m1108.9 901.7c-3.4 0-6.2-2.7-6.2-6.2 0-3.4 2.8-6.2 6.2-6.2 3.4 0 6.2 2.8 6.2 6.2 0 3.5-2.8 6.2-6.2 6.2z"/>
						<g id="&lt;Group&gt;">
							<path id="&lt;Path&gt;" class="s2" d="m1119.8 890c-1 0-2-0.6-2.5-1.5-1.6-2.6-3.4-4.1-5.5-4.6-3.7-0.8-7.4 1.6-7.4 1.7-1.3 0.9-3.2 0.6-4.1-0.8-1-1.3-0.6-3.2 0.7-4.1 0.2-0.2 5.7-4 12-2.6 3.8 0.8 7 3.3 9.4 7.4 0.8 1.4 0.4 3.2-1 4q-0.8 0.5-1.6 0.5z"/>
						</g>
						<g id="&lt;Group&gt;">
							<path id="&lt;Path&gt;" class="s2" d="m1047.7 890.3c-0.6 0-1.3-0.2-1.8-0.7-1.3-1-1.5-2.9-0.5-4.2 3.9-4.9 8.3-7.5 12.9-7.9 6-0.4 10.1 3.2 10.2 3.4 1.3 1.1 1.3 3 0.2 4.2-1.1 1.2-2.9 1.3-4.2 0.2 0-0.1-2.5-2.1-5.8-1.8-2.9 0.2-5.8 2.1-8.6 5.6-0.6 0.8-1.5 1.2-2.4 1.2z"/>
						</g>
						<path id="&lt;Path&gt;" class="s6" d="m1090.2 903.7c8 5.8 10.5 8.1 13.6 10.1-2.1 7.1-13.4 10.7-16.6 9.9 7.9-3.9 9-9.1 9-9.1z"/>
						<path id="&lt;Path&gt;" class="s3" d="m1034.4 891.1c6.7 8.4 7 19.3 0.8 24.3-6.3 4.9-16.8 2.1-23.5-6.4-6.7-8.5-7-19.3-0.7-24.3 6.2-4.9 16.7-2.1 23.4 6.4z"/>
						<g id="&lt;Group&gt;">
							<path id="&lt;Path&gt;" class="s6" d="m1028.6 909.4q-0.4 0-0.8-0.2c-1-0.4-1.5-1.6-1.1-2.6 1.4-3.4 1.5-6.1 0.1-8-2.1-3.1-7-4-10.6-3.9-1.1 0.1-2-0.8-2-1.9-0.1-1.1 0.8-2 1.9-2.1 4.8-0.1 11 1.3 14 5.6 1.5 2.2 2.8 6 0.3 11.8-0.3 0.8-1.1 1.3-1.8 1.3z"/>
						</g>
						<path id="&lt;Path&gt;" class="s0" d="m1068.6 934.2c-0.9-1.3 0.3-3 1.9-2.7 3.9 0.9 10.5 2.1 16.8 2.7 6.3 0.5 13 0.5 17 0.3 1.6 0 2.5 1.9 1.4 3.1-3.2 3.6-9.7 9-19.4 8.2-9.7-0.9-15.2-7.4-17.7-11.6z"/>
					</g>
					<g id="&lt;Group&gt;">
						<path id="&lt;Path&gt;" class="s2" d="m1095.6 1788.1c5.3-13.7 16.4-15.3 16.4-15.3 21.7 29 75 11.2 73.3 50.4-81.1-0.5-114.8 0-114.8 0 0.1-9 1.7-30.3 3.6-38.7l4.2 0.7z"/>
						<path id="&lt;Path&gt;" class="s7" d="m1181.4 1833.7h-107c-2.1 0-3.9-1.8-3.9-4v-7.6h114.8v7.6c0 2.2-1.7 4-3.9 4z"/>
					</g>
					<g id="&lt;Group&gt;">
						<path id="&lt;Path&gt;" class="s3" d="m854.8 1619.6l-28.6 14.6 4 21 23.1 6.3 10.9-5z"/>
						<path id="&lt;Path&gt;" class="s2" d="m832.8 1654.3c14.2-1.7 20.5 7.2 20.5 7.2-15 31.8 24.4 69.5-10 85.7-36.3-69.8-52-98.5-52-98.5 7.8-4 26.8-12.3 34.9-14.5l1.2 4z"/>
						<path id="&lt;Path&gt;" class="s7" d="m832.2 1747.9l-47.7-90.4c-1.2-2.3-0.3-5 1.9-6.2l5.8-3.1 52 98.6-5.8 3c-2.2 1.2-5 0.4-6.2-1.9z"/>
					</g>
					<g id="&lt;Group&gt;">
						<g id="&lt;Group&gt;">
							<g id="&lt;Group&gt;">
								<g id="&lt;Group&gt;">
									<path id="&lt;Path&gt;" class="s8" d="m1018.4 1477.4c-23.6-4.3-46.3-4.3-59.6-4 8.4-28.1 6-202 59.3-261.7h134.3c47.5 81.5 29.6 202.4 59 251.9-11.5 5.5-43.7 19.4-85.8 23.7-46.6 4.7-67.2-2.7-107.2-9.9z"/>
								</g>
							</g>
						</g>
					</g>
					<path id="&lt;Path&gt;" class="s9" d="m1061.3 994.4l-32.3-2.7c0 0-40.4-85.4-56-113-10.6-44.4 4.5-161.3 4.5-161.3l-47-11.2c0 0-21.6 142.8-14.3 183 1.9 10.7 60.6 135.7 60.6 135.7 0 0 19.8 35.1-7.3 211.1 38.2 9.5 64.9 10.1 64.9 10.1z"/>
					<path id="&lt;Path&gt;" class="s9" d="m1105.8 994.4l25 251.7c0 0 11.4 3.9 54.4-8.9-20.8-105.1-14.8-169.6-11.8-189.8 0.6-4.2 1.9-8.3 3.9-12 9-17 38.7-75 66.1-150.4-1.7-35.1-27.1-178.8-27.1-178.8l-44.5-2.4 13.6 169c0 0-47.6 103.8-53.2 121z"/>
				</g>
				<path id="&lt;Path&gt;" class="s10" d="m1409 725h-659.6c-30.3 0-54.9-24.6-54.9-55v-153c0-30.4 24.6-55 54.9-55h659.6c30.4 0 55 24.6 55 55v153c0 30.4-24.6 55-55 55z"/>
				<g id="&lt;Group&gt;">
					<path id="&lt;Path&gt;" class="s11" d="m824.9 653.5l-34.3-20.5-34.2 20.4c-3.4 1.9-7.5-1-6.6-4.8l9-38.9-30-26.3c-2.9-2.6-1.4-7.4 2.5-7.7l39.7-3.5 15.8-36.7c1.5-3.5 6.6-3.5 8.1 0.1l15.6 36.7 39.7 3.6c3.9 0.4 5.5 5.2 2.5 7.7l-30.1 26.2 8.8 38.9c0.9 3.8-3.2 6.8-6.5 4.8z"/>
					<path id="&lt;Path&gt;" class="s11" d="m969.1 653.5l-34.2-20.5-34.3 20.4c-3.3 1.9-7.4-1-6.6-4.8l9-38.9-30-26.3c-2.9-2.6-1.3-7.4 2.5-7.7l39.8-3.5 15.7-36.7c1.6-3.5 6.6-3.5 8.1 0.1l15.6 36.7 39.8 3.6c3.8 0.4 5.4 5.2 2.5 7.7l-30.1 26.2 8.8 38.9c0.8 3.8-3.3 6.8-6.6 4.8z"/>
					<path id="&lt;Path&gt;" class="s11" d="m1113.3 653.5l-34.2-20.5-34.3 20.4c-3.3 1.9-7.4-1-6.5-4.8l8.9-38.9-30-26.3c-2.9-2.6-1.3-7.4 2.6-7.7l39.7-3.5 15.8-36.7c1.5-3.5 6.6-3.5 8.1 0.1l15.6 36.7 39.7 3.6c3.9 0.4 5.4 5.2 2.5 7.7l-30.1 26.2 8.8 38.9c0.8 3.8-3.3 6.8-6.6 4.8z"/>
					<path id="&lt;Path&gt;" class="s11" d="m1257.5 653.5l-34.2-20.5-34.2 20.4c-3.4 1.9-7.5-1-6.6-4.8l9-38.9-30-26.3c-3-2.6-1.4-7.4 2.5-7.7l39.7-3.5 15.8-36.7c1.5-3.5 6.6-3.5 8.1 0.1l15.6 36.7 39.7 3.6c3.9 0.4 5.5 5.2 2.5 7.7l-30.1 26.2 8.8 38.9c0.9 3.8-3.2 6.8-6.6 4.8z"/>
					<path id="&lt;Path&gt;" class="s11" d="m1401.8 653.5l-34.2-20.5-34.3 20.4c-3.4 1.9-7.4-1-6.6-4.8l9-38.9-30-26.3c-2.9-2.6-1.3-7.4 2.5-7.7l39.8-3.5 15.7-36.7c1.6-3.5 6.6-3.5 8.1 0.1l15.6 36.7 39.8 3.6c3.8 0.4 5.4 5.2 2.5 7.7l-30.1 26.2 8.8 38.9c0.8 3.8-3.3 6.8-6.6 4.8z"/>
				</g>
			</g>
			<path id="&lt;Path&gt;" class="s12" d="m2883.9 1853.4h-2742.7c-6.7 0-12-5.4-12-12 0-6.7 5.3-12 12-12h2742.7c6.7 0 12 5.3 12 12 0 6.6-5.3 12-12 12z"/>
			<g id="&lt;Group&gt;">
				<path id="&lt;Path&gt;" class="s12" d="m2880.5 1427.4c0 0 21.8 23.8 9.6 78.5-12.6 55.8 0.4 89.5 0.4 89.5l-17.8 24.5c0 0-17.1-51.8-4.9-96.2 15.3-55.5 12.7-96.3 12.7-96.3z"/>
				<path id="&lt;Path&gt;" class="s12" d="m2950.7 1426.7c0 0 9.5 21.8-10 60.1-20.1 39-18.3 66.5-18.3 66.5l-15.1 19.4c0 0-2.6-46.3 14.8-76.9 21.8-38.3 28.6-69.1 28.6-69.1z"/>
				<path id="&lt;Path&gt;" class="s12" d="m2844.3 1491.3c0 0-17 19.1-16.2 79.7 0.7 49.3 17.3 71.2 17.5 101.5l21.4-38.1c-3.2-20.8-19.4-31-22.2-75.7-2.6-41.9-0.5-67.4-0.5-67.4z"/>
				<path id="&lt;Path&gt;" class="s12" d="m2702.9 1708.7c0 0-3.5 25.4 30.9 75.2 28.1 40.6 52.9 40.9 59.8 50.2l4.7-25c-16.7-14.6-30.3-9.1-57.5-44.7-25.5-33.4-37.9-55.7-37.9-55.7z"/>
				<path id="&lt;Path&gt;" class="s12" d="m2805.3 1538.6c0 0-4.3 43.9-1.3 70.5 4.2 37.9 23.4 54.1 30.4 92.5l-14.4 29.5c0 0-27.4-35.5-30.6-82.4-5.5-78.8 15.9-110.1 15.9-110.1z"/>
				<path id="&lt;Path&gt;" class="s12" d="m2739.6 1574.4c9.7 22.8 16.1 46.8 18.8 71.4 7.8 74.6 56.7 118.1 56.7 118.1l-9.3 20.3c0 0-55.9-27-60.7-89.9-4.9-66.4-5.5-119.9-5.5-119.9z"/>
				<path id="&lt;Path&gt;" class="s12" d="m2866.6 1639.9c0 0 15.7-10.1 88.8-17.8 46.9-5 29.5-19.1 75.6-16.2-32 10.6-37.5 37.1-80.9 44.2-34.6 5.7-68.8 14.1-102.1 25.1z"/>
				<path id="&lt;Path&gt;" class="s12" d="m3015.3 1653.5c0 0-19.6 41.7-83.7 52.1-39.4 6.5-77.5 19.4-112.7 38.3l11.5-36.3c0 0 21.7-25.1 89.3-29.5 46.5-3 95.6-24.6 95.6-24.6z"/>
				<path id="&lt;Path&gt;" class="s12" d="m2991.9 1722.3c0 0-19.6 41.7-83.7 52.1-39.4 6.4-77.5 19.4-112.7 38.2l11.5-36.2c0 0 21.6-25.1 89.3-29.5 46.5-3.1 95.6-24.6 95.6-24.6z"/>
				<path id="&lt;Path&gt;" class="s12" d="m3032.5 1527.7c0 0-15.8 23-56.5 28-41.3 5.1-68.9 20.8-68.9 20.8l8.6-14.6c0 0 13.6-15.9 56.4-18.6 29.4-2 60.4-15.6 60.4-15.6z"/>
				<path id="&lt;Path&gt;" class="s12" d="m2894.7 1599.9c0 0 30.2-10.5 76.7-17.2 29.4-4.4 63.5-30.7 63.5-30.7 0 0-19.7 48.1-64.2 52-51.1 4.3-98.2 22.5-98.2 22.5z"/>
				<path id="&lt;Path&gt;" class="s12" d="m2913.8 1567.4c0 0 16.2-46.5 57.5-64.7 24.5-11 46.9-26.1 66.3-44.4 0 0-14 47.3-53.8 59.9-36.7 11.8-56.8 42.6-56.8 42.6z"/>
				<path id="&lt;Path&gt;" class="s12" d="m2797.3 1834l-7.1-1.2c7.2-44 51.9-191.9 131.4-279.2l5.3 4.9c-78.4 86.1-122.4 232.1-129.6 275.5z"/>
			</g>
			<g id="&lt;Group&gt;">
				<path id="&lt;Path&gt;" class="s12" d="m319.2 1386.8c0 0-25.2 25.2-14.3 85.9 11 62-4.8 98.4-4.8 98.4l18.4 27.8c0 0 21.3-56.2 10-105.6-14.2-61.7-9.3-106.5-9.3-106.5z"/>
				<path id="&lt;Path&gt;" class="s12" d="m242.1 1382.7c0 0-11.6 23.5 8 66.5 20.2 43.9 17 74 17 74l15.6 22.1c0 0 5.1-50.8-12.6-85.3-22-43.1-28-77.3-28-77.3z"/>
				<path id="&lt;Path&gt;" class="s12" d="m355.8 1458.9c0 0 17.8 21.8 14 88.3-3.1 54.2-22.3 77.5-24 110.8l-21.7-42.9c4.4-22.7 22.8-33.2 28-82.2 4.9-45.9 3.7-74 3.7-74z"/>
				<path id="&lt;Path&gt;" class="s12" d="m500.9 1704.7c0 0 2.6 28.1-37.6 81.1-32.8 43.3-60.1 42.5-68.2 52.4l-3.9-27.7c19-15.3 33.7-8.6 65.3-46.4 29.7-35.5 44.4-59.4 44.4-59.4z"/>
				<path id="&lt;Path&gt;" class="s12" d="m396.5 1512.7c0 0 2.6 48.5-2 77.6-6.4 41.5-28.3 58.4-37.9 100.2l14.4 33.1c0 0 31.9-37.7 37.7-89.1 9.9-86.3-12.2-121.8-12.2-121.8z"/>
				<path id="&lt;Path&gt;" class="s12" d="m467 1555.2c-11.8 24.6-19.9 50.7-24.1 77.7-12.1 81.6-70.7 129.4-70.7 129.4l12 20.4c0 0 62.7-27 71-95.9 8.6-72.8 11.8-131.6 11.8-131.6z"/>
				<path id="&lt;Path&gt;" class="s12" d="m324.2 1621.2c0 0-16.7-11.9-96.8-23.9-51.3-7.7-31.5-22.4-82.3-21.4 34.7 13.1 39.5 42.5 86.8 52.5 37.8 7.9 75 18.7 111.1 32.4z"/>
				<path id="&lt;Path&gt;" class="s12" d="m160.1 1629c0 0 19.5 46.8 89.5 61.3 43 9 84.2 25 122 47.4l-10.9-40.3c0 0-22.5-28.7-96.7-36.8-51-5.5-103.9-31.6-103.9-31.6z"/>
				<path id="&lt;Path&gt;" class="s12" d="m182.5 1705.7c0 0 19.6 46.8 89.5 61.3 43 9 84.3 25 122.1 47.5l-10.9-40.4c0 0-22.6-28.7-96.8-36.8-50.9-5.5-103.9-31.6-103.9-31.6z"/>
				<path id="&lt;Path&gt;" class="s12" d="m147.2 1489.8c0 0 16.2 26 60.8 33.5 45.2 7.6 74.7 26.1 74.7 26.1l-8.7-16.4c0 0-14.2-18.1-61.1-23.2-32.3-3.5-65.7-20-65.7-20z"/>
				<path id="&lt;Path&gt;" class="s12" d="m295.3 1575.8c0 0-32.8-12.9-83.6-22.6-32-6.2-68.3-36.8-68.3-36.8 0 0 19.4 53.9 68.1 60.2 55.9 7.3 106.9 29.5 106.9 29.5z"/>
				<path id="&lt;Path&gt;" class="s12" d="m275.8 1539.1c0 0-15.6-51.8-60.1-73.9-26.4-13.3-50.3-30.8-70.8-52 0 0 13.2 52.7 56.3 68.5 39.8 14.8 60.4 49.6 60.4 49.6z"/>
				<path id="&lt;Path&gt;" class="s12" d="m391.1 1837.9l7.9-1c-5.9-48.7-47.9-213.5-131.1-313.3l-6.1 5.1c82.1 98.4 123.5 261.1 129.3 309.2z"/>
			</g>
			<g id="&lt;Group&gt;">
				<g id="&lt;Group&gt;">
					<path id="&lt;Path&gt;" class="s13" d="m1738.9 1634.3l-42.2 196c-1.2 5.3-3 8.4-5 8.4-3.8 0-6.6-10.5-6-22l9.2-182.4z"/>
					<path id="&lt;Path&gt;" class="s13" d="m2813.6 1634.3l42.2 196c1.1 5.3 3 8.4 5 8.4 3.7 0 6.6-10.5 6-22l-9.2-182.4z"/>
					<path id="&lt;Path&gt;" class="s13" d="m2486.4 1634.3l42.2 196c1.1 5.3 3 8.4 5 8.4 3.7 0 6.6-10.5 6-22l-9.2-182.4z"/>
					<path id="&lt;Path&gt;" class="s14" d="m2179.4 1669.6h-450.2c-26.1 0-47.3-21.1-47.3-47.2v-240.4c0-20.3 16.4-36.7 36.8-36.7h460.7z"/>
					<path id="&lt;Path&gt;" class="s13" d="m2273.8 1669.6h-450.2c-26.2 0-47.3-21.1-47.3-47.2v-240.4c0-20.3 16.4-36.7 36.7-36.7h460.8z"/>
					<path id="&lt;Path&gt;" class="s14" d="m2804.6 1427.3h-804.9v-169c0-19.5 15.8-35.3 35.3-35.3h769.6z"/>
					<path id="&lt;Path&gt;" class="s15" d="m2859.4 1421.7h-1040.9c-23.8 0-43.1 19.3-43.1 43.1v49.8h1084z"/>
					<path id="&lt;Path&gt;" class="s14" d="m2859.4 1503.8h-1084v166.1h1084z"/>
					<path id="&lt;Path&gt;" class="s13" d="m2859.3 1427.3h-109.3v-204.3h74c19.5 0 35.3 15.8 35.3 35.3z"/>
				</g>
				<g id="&lt;Group&gt;">
					<path id="&lt;Path&gt;" class="s3" d="m1774.1 1788l-35.1 11.4-16.7-30.8c1.5-1.2 2.4-22.5 2.7-38.6l58.1 4.1c-1.7 16.4-5 37.9-9 53.9z"/>
					<g id="&lt;Group&gt;">
						<g id="&lt;Group&gt;">
							<path id="&lt;Path&gt;" class="s2" d="m1712.4 1810.9c0 0-13.7-19.9-29.5-20.1 0 0-29.3 3.6-38.8 16.7-3 4.1-1.2 12.3 0.4 17.6 1 3.2 4.1 6.7 13 8.8 13.1 3.2 30.7 4.5 62.1-5.9 37.7-12.5 44.1-8.8 58-14.3 14.4-5.7 8.4-23.4 3.3-40.6 0 0-9.3 22.1-68.5 37.8z"/>
						</g>
						<g id="&lt;Group&gt;">
							<g id="&lt;Group&gt;">
								<path id="&lt;Path&gt;" class="s13" d="m1721.1 1765.6c0 0-16.4 11.5-38.4 18.1-12.4 3.7-45.3 12.5-38.5 34.4 1 3.2 4.1 6.6 13 8.8 13.1 3.2 30.7 4.5 62.1-5.9 37.7-12.5 44.1-8.8 58-14.3 14.4-5.8 6.2-25.7 1-42.9 0 4.4-1.3 16.2-27.3 28.4-7.7 3.7-3.6-31.8-29.9-26.6z"/>
							</g>
						</g>
					</g>
					<path id="&lt;Path&gt;" class="s3" d="m1913.2 1783.9l-34.2 13.9-18.8-29.6c1.4-1.3 0.8-22.6 0-38.7h58.2c-0.5 16.5-2.4 38.2-5.2 54.4z"/>
					<path id="&lt;Path&gt;" class="s16" d="m1945.7 1390.5c-78.7 19.9-188.4 79-198.7 91.5-21.5 25.8-23.2 110-24.2 259.2h63.8c18-117.7 41.1-169.9 41.9-217.3 0 0 61.4 0.1 150.9-41.5 44.2-20.5 90-44.1 73.7-84.1-13-31.9-32.4-26.7-107.4-7.8z"/>
					<path id="&lt;Path&gt;" class="s9" d="m2032.8 1383.3c-65.7 11.3-148.9 92.9-159.3 105.4-21.4 25.7-12.3 108.7-13.3 258h60.2c6.1-77.7 36.2-166.3 32.3-222.8 0 0 64.7-9.6 154.3-51.2 44.1-20.5 89-18.5 78.3-69.7-7.1-33.8-76.2-32.8-152.5-19.7z"/>
					<g id="&lt;Group&gt;">
						<g id="&lt;Group&gt;">
							<g id="&lt;Group&gt;">
								<g id="&lt;Group&gt;">
									<path id="&lt;Path&gt;" class="s3" d="m1838 1115.3c16.6-16.8 5.7-34 5.7-34 9.1-2 57.2 70.9 78 117.3 36.2-36.5 100-85.8 117.2-88.7 0 0 23.3-6.2 31.6 21.9 7.5 25.1-21.6 42.9-21.6 42.9 0 0-124.5 87.9-142.9 80.1-28.7-12.2-54.6-116.8-68-139.5z"/>
								</g>
							</g>
						</g>
						<g id="&lt;Group&gt;">
							<g id="&lt;Group&gt;">
								<g id="&lt;Group&gt;">
									<g id="&lt;Group&gt;">
										<path id="&lt;Path&gt;" class="s3" d="m1812 1113.2c10.1 0.6 22.7-4.4 26.6 4.7l20-9.8 1.3-12.1c-17.3-27.6-59.3-35.4-63.4-35.8-10.8-0.9-15.8-2-16.7-0.6-0.8 1.4-3.5 11.1 12.2 12.9 19.7 2.4 6.6 18.1-33.3 3.2-10-3.8-28.8 1.1-22 8.4 7.5 8 29 26.3 75.3 29.1z"/>
									</g>
								</g>
							</g>
						</g>
					</g>
					<path id="&lt;Path&gt;" class="s2" d="m2032.9 1130.5c-31-4.3-80.2-17.6-59.5-65.4 20.8-47.7 23.9-29.4 2.6-77.6-21.3-48.1 6.2-95.4 42.5-92.5 36.2 2.8 50.8 28.6 91.2 12.7 40.4-15.8 83.5 16 74.9 53.3-8.6 37.3-11.8 55.1 6.9 70.7 18.7 15.7 89.4 21.9 71.2 72.8-18.2 50.9-31.5 50.9-17 71.9 14.5 21.1-2.1 52-41.4 56.6-39.2 4.5-77.2-2.7-100.4-42.7-23.2-40-71-59.8-71-59.8z"/>
					<path id="&lt;Path&gt;" class="s17" d="m1966.6 1148.6c26.3-15.9 69.7-60.4 102.8-47.3 33 13.2 21.8 53.2 6 69.7-15.8 16.5-64.9 54.3-64.9 54.3z"/>
					<path id="&lt;Path&gt;" class="s18" d="m2181.3 1393.8c-14.7-75.9-11.1-75.8-17.2-111.5-15.1-88.2 62.6-159-51-194l-50.3 11.1c-48.4 23.9-57.8 66.8-62.6 96.1-9.1 55.8-1.1 139-1.1 139l-19.1 47.5c0 0 13.2 13.3 75.8 25.1 62.5 11.8 125.5-13.3 125.5-13.3z"/>
					<path id="&lt;Path&gt;" class="s3" d="m2192.8 1168.4c12.1 44.7 13.4 192.5 3.1 205.7l-51.8-28.7c0 0-24-153.9-26.8-179.6-4.8-44.6 55.9-70.4 75.5 2.6z"/>
					<path id="&lt;Path&gt;" class="s17" d="m2116.4 1238.9c-4.8-34-11.2-98.9 17.3-120.2 28.5-21.3 55.8 4.6 61.6 26.8 5.8 22.1 12.4 83.7 12.4 83.7z"/>
					<path id="&lt;Path&gt;" class="s3" d="m2133 1012.3c-1 40.1-27.5 72-59 71.1-31.5-0.8-56.1-34-55.1-74.1 1.1-40.2 27.5-72 59-71.2 31.5 0.9 56.2 34.1 55.1 74.2z"/>
					<path id="&lt;Path&gt;" class="s3" d="m2122.7 1035.5l-43.3 41.4c0 0 0.3 23-0.4 30.6-1.5 15.7 17.4 18.5 30.2 6.2 12.8-12.3 13.9-25.4 13.9-25.4z"/>
					<path id="&lt;Path&gt;" class="s2" d="m2012.4 995.4c14.4-1.8 44.6-10.7 53-26.4 13.7 25.3 53 43.8 83.6 49.9-4.7-27.9-15.7-78.7-69.7-89.4-42.4-8.3-66.9 65.9-66.9 65.9z"/>
					<path id="&lt;Path&gt;" class="s5" d="m2034.4 1018.4c-0.7 2.9-3.7 4.7-6.6 3.9-3-0.8-4.7-3.7-4-6.7 0.8-2.9 3.8-4.7 6.7-3.9 2.9 0.8 4.7 3.7 3.9 6.7z"/>
					<path id="&lt;Path&gt;" class="s5" d="m2079.4 1017.8c-0.8 3.2-4 5.1-7.2 4.3-3.2-0.9-5.1-4.1-4.3-7.3 0.9-3.1 4.1-5.1 7.3-4.2 3.1 0.8 5 4 4.2 7.2z"/>
					<g id="&lt;Group&gt;">
						<path id="&lt;Path&gt;" class="s2" d="m2084.8 1011.6c-0.4-0.1-0.8-0.3-1.1-0.7-4.2-5.7-12.4-5.2-12.4-5.2-1.2 0-2.2-0.8-2.2-2-0.1-1.1 0.7-2.1 1.9-2.2 0.4 0 10.4-0.6 16 6.9 0.7 0.9 0.5 2.2-0.4 2.9-0.5 0.4-1.2 0.5-1.8 0.3z"/>
					</g>
					<g id="&lt;Group&gt;">
						<path id="&lt;Path&gt;" class="s2" d="m2021.8 1011q-0.4-0.1-0.7-0.3c-0.9-0.6-1.2-1.9-0.5-2.8 4.8-7.4 13-6.5 13.3-6.4 1.1 0.1 1.9 1.1 1.8 2.3-0.2 1.1-1.2 1.9-2.3 1.8-0.3-0.1-6-0.6-9.4 4.6-0.5 0.7-1.4 1-2.2 0.8z"/>
					</g>
					<path id="&lt;Path&gt;" class="s6" d="m2041 1027.3c-2.3 3.6-4.2 7.3-6.6 9.6-0.9 0.8-0.9 2.2-0.1 3 3.1 3.6 10.4 5.5 14.8 6.3 0.7 0.2 1-0.7 0.4-1-4.8-2.8-7.2-5-8.2-6.3-0.5-0.7-0.7-1.5-0.5-2.3 0.5-1.9 1.5-5.6 2-8.7 0.2-1-1.2-1.6-1.8-0.6z"/>
					<path id="&lt;Path&gt;" class="s3" d="m2118.6 1015.6c-6 7.2-6.2 17.1-0.3 22.1 5.9 5 15.6 3.2 21.7-4.1 6.1-7.2 6.3-17.1 0.4-22-5.9-5-15.7-3.2-21.8 4z"/>
					<g id="&lt;Group&gt;">
						<path id="&lt;Path&gt;" class="s6" d="m2126.9 1034.1q-0.5-0.2-0.9-0.5c-3.5-3.1-4.7-7.2-3-11 1.7-3.9 5.8-6.4 9.9-5.9 1.1 0.1 1.9 1.1 1.8 2.2-0.1 1.2-1.2 2-2.3 1.9-2.2-0.3-4.7 1.2-5.6 3.4-1 2.1-0.3 4.4 2 6.3 0.8 0.8 0.9 2.1 0.2 2.9-0.6 0.6-1.4 0.8-2.1 0.7z"/>
					</g>
					<path id="&lt;Path&gt;" class="s3" d="m2148 1341.2c15-4.8 49.6 27.7 48.4 33.1-44.5 81.6-158.6 115.2-158.6 115.2l-19.9-15.1c0 0 76.8-64.7 130.1-133.2z"/>
					<path id="&lt;Path&gt;" class="s3" d="m2037.8 1489.5c-2.2 21.3-34 49.1-61.7 51-27.8 2-18.9-24.8-8-31.7 11-6.9 26.7-13.9 22.8-19.3-3.9-5.5-10.9-4-15.8-10.4-4.4-5.8 17.2-17 42.8-4.7 8.6 6.5 19.9 15.1 19.9 15.1z"/>
					<path id="&lt;Path&gt;" class="s0" d="m2060.5 1058.7c0.8 3.8-2 7.6-6.1 8.5-4.2 0.8-8.2-1.5-9-5.3-0.8-3.8 1.9-7.6 6.1-8.5 4.1-0.9 8.2 1.5 9 5.3z"/>
					<g id="&lt;Group&gt;">
						<g id="&lt;Group&gt;">
							<path id="&lt;Path&gt;" class="s2" d="m1853.3 1811.1c0 0-15.1-18.9-30.8-18 0 0-29.1 5.7-37.6 19.4-2.7 4.3-0.3 12.4 1.7 17.5 1.2 3.2 4.5 6.4 13.5 7.9 13.4 2.3 30.9 2.4 61.6-10.2 36.7-15.2 43.3-11.9 56.8-18.4 13.9-6.7 6.8-23.9 0.4-40.7 0 0-7.7 22.7-65.6 42.5z"/>
						</g>
						<g id="&lt;Group&gt;">
							<g id="&lt;Group&gt;">
								<path id="&lt;Path&gt;" class="s13" d="m1858.8 1765.3c0 0-15.6 12.6-37.1 20.8-12 4.6-44.3 15.6-35.9 36.9 1.2 3.2 4.5 6.4 13.6 7.9 13.3 2.3 30.9 2.4 61.5-10.2 36.7-15.2 43.4-11.9 56.8-18.4 14-6.7 4.4-26-1.9-42.9 0.2 4.5-0.2 16.4-25.3 30.4-7.5 4.1-5.8-31.6-31.7-24.5z"/>
							</g>
						</g>
					</g>
				</g>
				<g id="c 18 ">
					<path id="&lt;Path&gt;" class="s19" d="m2373.6 1098.3c-39.7 12.1-59.4 95.6-76.3 183.1-27.1 53.2-47.3 94.1-73.3 147.8 24.3 5.5 44.4-9.8 44.4-9.8 0 0 61.6-56.7 90.2-119 6.6-14.3 8.8-43 12.5-55.7 1.6-40 2.5-146.4 2.5-146.4z"/>
					<path id="&lt;Path&gt;" class="s3" d="m2164.3 1788.2l-35 11.4-16.7-30.8c1.4-1.2 2.4-22.5 2.7-38.7l58.1 4.1c-1.7 16.4-5.1 38-9.1 54z"/>
					<g id="&lt;Group&gt;">
						<g id="&lt;Group&gt;">
							<path id="&lt;Path&gt;" class="s7" d="m2102.6 1811.1c0 0-13.7-19.9-29.4-20.2 0 0-29.4 3.7-38.9 16.8-3 4.1-1.2 12.3 0.5 17.6 1 3.2 4.1 6.6 13 8.8 13.1 3.2 30.6 4.5 62.1-5.9 37.7-12.5 44.1-8.8 57.9-14.4 14.4-5.7 8.5-23.3 3.3-40.5 0 0-9.2 22.1-68.5 37.8z"/>
						</g>
						<g id="&lt;Group&gt;">
							<g id="&lt;Group&gt;">
								<path id="&lt;Path&gt;" class="s2" d="m2111.4 1765.8c0 0-16.4 11.5-38.5 18.1-12.3 3.7-45.3 12.4-38.4 34.3 1 3.3 4.1 6.7 13 8.9 13.1 3.2 30.6 4.5 62.1-5.9 37.7-12.5 44.1-8.9 58-14.4 14.3-5.7 6.2-25.6 1-42.9 0 4.5-1.3 16.3-27.3 28.5-7.7 3.7-3.6-31.9-29.9-26.6z"/>
							</g>
						</g>
						<g id="&lt;Group&gt;">
							<path id="&lt;Path&gt;" class="s20" d="m2118.2 1792.2c-1.3 0-2.5-0.8-2.9-2.1-3.4-10.7-14.7-10.7-15.2-10.7-1.7 0-3.1-1.3-3.1-3 0-1.7 1.3-3 3-3.1 5.6-0.1 17.2 2.9 21.1 15 0.5 1.6-0.4 3.3-2 3.8q-0.5 0.1-0.9 0.1z"/>
						</g>
						<g id="&lt;Group&gt;">
							<path id="&lt;Path&gt;" class="s20" d="m2104.5 1798.8c-1.3 0-2.5-0.8-2.9-2.1-3.4-10.7-14.7-10.7-15.2-10.7-1.7 0-3.1-1.3-3.1-3 0-1.7 1.3-3.1 3-3.1 5.6-0.1 17.2 2.9 21.1 15 0.5 1.6-0.4 3.3-2 3.8q-0.4 0.1-0.9 0.1z"/>
						</g>
					</g>
					<path id="&lt;Path&gt;" class="s3" d="m2304.5 1792.3l-34.1 13.9-18.8-29.6c1.3-1.3 4.8-23.9 4.1-40.1l54.1 1.4c-0.6 16.4-2.4 38.2-5.3 54.4z"/>
					<path id="&lt;Path&gt;" class="s7" d="m2336 1390.7c-78.7 19.9-188.4 79-198.8 91.5-21.4 25.8-27.1 109.9-28.1 259.2h70c18-117.8 38.9-170 39.7-217.4 0 0 61.3 0.2 150.9-41.4 44.2-20.5 90-44.1 73.7-84.1-13-31.9-32.4-26.7-107.4-7.8z"/>
					<path id="&lt;Path&gt;" class="s2" d="m2425.5 1391.7c-65.7 11.2-148.9 92.9-159.3 105.4-21.4 25.7-18.8 108.7-19.7 258l69.8 1.8c6.1-77.7 33-168.1 29.1-224.6 0 0 61.3-17.6 155.9-45.6 51.8-15.4 67.1-24.6 74.8-59.6 2.7-11.9 5.5-39.3-0.1-45-25-25.1-88.2-1.1-150.5 9.6z"/>
					<g id="&lt;Group&gt;">
						<g id="&lt;Group&gt;">
							<path id="&lt;Path&gt;" class="s7" d="m2244.6 1819.5c0 0-15.1-18.9-30.8-18 0 0-29 5.7-37.6 19.4-2.7 4.3-0.3 12.4 1.7 17.5 1.3 3.2 4.6 6.4 13.6 7.9 13.3 2.3 30.9 2.4 61.5-10.2 36.8-15.2 43.4-11.9 56.9-18.4 13.9-6.7 6.7-23.9 0.4-40.8 0 0-7.7 22.8-65.7 42.6z"/>
						</g>
						<g id="&lt;Group&gt;">
							<g id="&lt;Group&gt;">
								<path id="&lt;Path&gt;" class="s2" d="m2250.2 1773.7c0 0-15.6 12.6-37.1 20.8-12.1 4.6-44.4 15.6-36 36.9 1.3 3.2 4.6 6.4 13.6 7.9 13.3 2.3 30.9 2.4 61.5-10.2 36.8-15.2 43.4-11.9 56.9-18.4 13.9-6.7 4.4-26-2-42.9 0.3 4.5-0.2 16.3-25.2 30.4-7.5 4.1-5.8-31.6-31.7-24.5z"/>
							</g>
						</g>
						<g id="&lt;Group&gt;">
							<path id="&lt;Path&gt;" class="s20" d="m2264.7 1800.4c-1.2 0-2.4-0.8-2.9-2.1-3.4-10.7-14.7-10.8-15.2-10.8-1.6 0.1-3-1.3-3-2.9-0.1-1.7 1.3-3.1 2.9-3.1 5.6-0.1 17.3 2.9 21.1 14.9 0.5 1.6-0.3 3.3-1.9 3.8q-0.5 0.2-1 0.2z"/>
						</g>
						<g id="&lt;Group&gt;">
							<path id="&lt;Path&gt;" class="s20" d="m2251 1807c-1.2 0-2.4-0.9-2.8-2.1-3.5-10.8-14.8-10.8-15.3-10.8-1.6 0-3-1.3-3-3-0.1-1.6 1.3-3 2.9-3 5.7-0.2 17.3 2.9 21.1 14.9 0.6 1.6-0.3 3.3-1.9 3.8q-0.5 0.2-1 0.2z"/>
						</g>
					</g>
					<g id="&lt;Group&gt;">
						<path id="v-2 4 " class="s3" d="m2472.3 1031.5l-26.5 0.1-6 62.5 30.9 16.3 33-16.2-5.3-62.6z"/>
						<g id="&lt;Group&gt;">
							<g id="&lt;Group&gt;">
								<path id="&lt;Path&gt;" class="s2" d="m2484.3 1022c22.2 9.6 43-16.2 43-16.2 14.8 1.9 16.7-12.9 16.7-12.9 7.3 0 18.3-4.5 19.3-18.1 0.8-11.6-10-14.2-7.6-27.3 2-10.5 16.7-33.2-15.1-44.8 0 0 4.8-19.1-13.3-29.5-22.2-12.6-32.4-0.1-43.6-0.6-12.6-0.6-34.5-18.9-45.8 7.2 0 0-16.8-4.6-28.1 5.2-10.6 9.2-10.7 24.9-7.5 31.7 0 0-14.7 0.5-21.6 12.3-4.6 7.8-4.6 19.8 2.3 27.7 4.4 5 9.4 6.8 9.4 6.8 5.2 2.5 1.1 17.3 5.1 21.6 6.4 6.8 13.8 12.5 21.6 17.6z"/>
								<path id="&lt;Path&gt;" class="s3" d="m2532.3 991.3c-7.4 43.2-46.5 76-80.5 70.1-33.9-5.8-49.8-48-42.4-91.2 7.4-43.3 40.9-73.6 74.9-67.7 33.9 5.8 55.4 45.6 48 88.8z"/>
								<path id="&lt;Path&gt;" class="s5" d="m2425.8 980.3c-1.3 3.1-4.8 4.5-7.9 3.2-3-1.3-4.4-4.8-3.2-7.8 1.3-3.1 4.8-4.5 7.9-3.2 3 1.3 4.5 4.8 3.2 7.8z"/>
								<path id="&lt;Path&gt;" class="s5" d="m2473.5 988.8c-1.4 3.3-5.2 4.9-8.5 3.5-3.3-1.4-4.9-5.2-3.5-8.5 1.4-3.3 5.2-4.8 8.5-3.4 3.3 1.3 4.8 5.1 3.5 8.4z"/>
								<path id="&lt;Path&gt;" class="s6" d="m2436.7 987.8c-6.6 7.9-14.9 17.5-14.9 17.5 0 0 1.9 9.6 14 11.4-4.8-2.8-9.4-7-6.4-13.5 3-6.5 7.3-15.4 7.3-15.4z"/>
								<g id="&lt;Group&gt;">
									<path id="&lt;Path&gt;" class="s2" d="m2484.2 982.6q0.3-0.1 0.7-0.3c1.4-0.7 2.1-2.5 1.4-4-2-4-8-11.2-16.9-9.4-1.6 0.4-2.7 2-2.3 3.6 0.3 1.6 1.9 2.6 3.5 2.3 6.6-1.4 10.2 6 10.3 6.1 0.6 1.3 2 1.9 3.3 1.7z"/>
								</g>
								<g id="&lt;Group&gt;">
									<path id="&lt;Path&gt;" class="s2" d="m2429.3 966.6q0.6-0.1 1.1-0.6c1-0.9 1.1-2.5 0.2-3.5-0.2-0.2-3.6-3.9-8.7-3.8-3.4 0.1-6.6 2-9.4 5.4-0.9 1.1-0.7 2.7 0.3 3.5 1.1 0.9 2.7 0.7 3.5-0.3q2.9-3.5 5.8-3.6c2.7-0.1 4.8 2.1 4.8 2.2 0.6 0.6 1.5 0.9 2.4 0.7z"/>
								</g>
								<path id="&lt;Path&gt;" class="s2" d="m2406.4 917.9l79.4-37.9 68.2 64.3-26.8 54.9c5.8-27.3-13.1-23.5-19.3-33.7-6.2-10.5-6.3-23.9-29.7-18.9 0 0-13.1-16.1-26.1-2.6-10.1 10.3-18.2 5.4-27.2 3.5-10.6-2.3-11.1 8.5-17.3 6.3z"/>
								<g id="&lt;Group&gt;">
									<path id="&lt;Path&gt;" class="s3" d="m2523.1 986.5c-7.7 6.9-9.4 17.5-3.9 23.8 5.6 6.4 16.4 6 24.1-0.8 7.8-6.9 9.5-17.5 4-23.8-5.6-6.4-16.4-6-24.2 0.8z"/>
									<g id="&lt;Group&gt;">
										<path id="&lt;Path&gt;" class="s6" d="m2529.1 1007.8q-0.5-0.2-0.8-0.6c-3.4-4-4-8.6-1.6-12.4 2.5-3.9 7.4-6 11.6-4.8 1.2 0.3 2 1.5 1.6 2.7-0.3 1.2-1.5 1.9-2.7 1.6-2.4-0.6-5.3 0.7-6.7 2.9-1.3 2.1-0.9 4.6 1.2 7.1 0.8 0.9 0.7 2.3-0.3 3.1-0.6 0.6-1.5 0.7-2.3 0.4z"/>
									</g>
								</g>
								<path id="&lt;Path&gt;" class="s0" d="m2449.4 1034.8c-0.9 4.8-5.9 7.9-11.2 7-5.2-1-8.8-5.7-7.9-10.5 0.9-4.8 5.8-8 11.1-7 5.3 0.9 8.9 5.6 8 10.5z"/>
							</g>
						</g>
					</g>
					<g id="v 7 ">
						<path id="v-25 4 " class="s21" d="m2527.9 1109.7c-19.2-6.5-39.4-9.5-59.7-8.9-68.7 0-79.2 17.3-79.2 16.9l51 140 28.2 13.9 30.9-9.2c0 0 40-148.6 28.8-152.7z"/>
						<path id="&lt;Path&gt;" class="s22" d="m2579.2 1387.9c0 0-55.9 14.3-107.8 14.7-51.9-0.4-106.7-19.1-106.7-19.1 0 0 6.9-95.3 6.2-131.9-1-42 2.7-97.7 2.7-153.3 0 0 36.8-5.9 57.6-8.5 3.4-0.4 6.3-0.7 8.6-0.9 0 0 11.9 24.8 63.4 0 2.7-0.3 6.1-0.3 9.8-0.1 21.7 1.3 56.6 9.5 56.6 9.5 0 55.4 2.2 109.7 1.5 151.7 2.3 37.5 8.1 137.9 8.1 137.9z"/>
					</g>
					<g id="c 20 ">
						<path id="&lt;Path&gt;" class="s3" d="m2442.7 1218.4l-12.6-7.3c0 0-3.4-17.8-23.6-18.2 2.3 7.4 5.6 18.2 5.6 18.2 0 0-9.9 7.7-33.5-5.5-23-5.1-13.2 11.6-20.8 12.8-11.3 1.8 8.2 24 31.2 27.3 29.8 4.4 33.3-1.7 33.3-1.7l16.8 5.9z"/>
						<path id="c 21 " class="s19" d="m2559 1237.4c-42-2.9-113.7-23.6-113.7-23.6-11.4 17.5-8.3 40.9-8.3 40.9 65.2 57.2 163.4 75.7 193.5 61.9 27.5-12.6 8.1-179.9-60.9-218.3l-2.4 0.2c-23.7 40.1-8.2 138.9-8.2 138.9z"/>
					</g>
					<path id="c 19 " class="s3" d="m2229.3 1434.1c0.4-0.6 0.7-1.3 0.8-1.9q0.2 0.1 0.3 0.2c6.1 3.8 13.3 3.5 16.1-0.9q0.7-1.1 0.9-2.3c4.5 1 8.7-0.1 10.7-3.2 0.8-1.2 1.1-2.6 1.1-4.1 4.4 1.3 9 0.1 11.2-3.4 2.8-4.3 0.8-10.6-4.4-13.9-5.2-3.3-11.6-2.5-14.4 1.9-0.7 1.1-1.1 2.3-1.2 3.6-5.7-2.8-11.8-2.1-14.3 1.9q-0.7 1-0.9 2.3c-4.5-1.1-8.7 0-10.7 3.1-0.8 1.2-1.1 2.5-1.1 3.9-3.9-1.4-8-0.4-9.9 2.6-2.4 3.7-0.7 9 3.6 11.8 4.4 2.8 9.9 2.1 12.2-1.6z"/>
					<path id="&lt;Path&gt;" class="s19" d="m2513 1088.8v0.1c-3.6 5.9-8.6 10.5-15.8 14.1-11.3 5.7-26.7 8.1-36.2 7.4-7.5-0.6-15.8-3.7-21.2-7.9-5.6-4.5-8.1-10.2-8.6-12.7 3.4-0.4 6.8-0.9 9.2-1.1 0 0 11.3 25 62.8 0.2 2.7-0.3 6.1-0.3 9.8-0.1z"/>
				</g>
				<path id="&lt;Path&gt;" class="s14" d="m2801.9 1666h-330.8c-22.3 0-40.3-18.1-40.3-40.3v-252.8c0-17.3 14-31.3 31.3-31.3h348.8c17.3 0 31.3 14 31.3 31.3v252.8c0 22.2-18 40.3-40.3 40.3z"/>
				<path id="&lt;Path&gt;" class="s13" d="m2859.4 1669.9h-294.2c-20.1 0-36.3-16.3-36.3-36.4v-263.7c0-15.6 12.6-28.2 28.2-28.2h302.3z"/>
			</g>
			<g id="&lt;Group&gt;">
				<path id="&lt;Path&gt;" class="s9" d="m1536.5 620.9h309.1c38.3 0 69.3 31 69.3 69.3v144.1c0 38.3-31 69.3-69.3 69.3h-2.2l24.8 83.1c1.1 3.6-3.2 6.6-6.2 4.3l-114.5-87.4h-211c-38.2 0-69.3-31-69.3-69.3v-144.1c0-38.3 31.1-69.3 69.3-69.3z"/>
				<path id="&lt;Path&gt;" class="s0" d="m1845.5 741.9h-296.8c-18.9 0-34.3-15.3-34.3-34.3 0-18.9 15.4-34.3 34.3-34.3h296.8c18.9 0 34.3 15.4 34.3 34.3 0 19-15.4 34.3-34.3 34.3z"/>
				<path id="&lt;Path&gt;" class="s0" d="m1845.5 846.6h-296.8c-18.9 0-34.3-15.3-34.3-34.3 0-18.9 15.4-34.2 34.3-34.2h296.8c18.9 0 34.3 15.3 34.3 34.2 0 19-15.4 34.3-34.3 34.3z"/>
			</g>
			<g id="&lt;Group&gt;">
				<path id="&lt;Path&gt;" class="s15" d="m2901.8 640.9h-285.7c-35.4 0-64.1 28.7-64.1 64.1v133.2c0 35.4 28.7 64 64.1 64h2.1l-23 76.9c-1 3.3 2.9 6 5.7 3.9l105.9-80.8h195c35.4 0 64.1-28.6 64.1-64v-133.2c0-35.4-28.7-64.1-64.1-64.1z"/>
				<path id="&lt;Path&gt;" class="s0" d="m2899.4 753.5h-287.7c-14.3 0-25.9-11.5-25.9-25.8v-6.5c0-14.2 11.6-25.8 25.9-25.8h287.7c14.3 0 25.8 11.6 25.8 25.8v6.5c0 14.3-11.5 25.8-25.8 25.8z"/>
				<path id="&lt;Path&gt;" class="s0" d="m2759 841.4h-134.8c-16 0-29-13-29-29.1 0-16 13-29 29-29h134.8c16 0 29 13 29 29 0 16.1-13 29.1-29 29.1z"/>
			</g>
			<g id="&lt;Group&gt;">
				<path id="&lt;Path&gt;" class="s15" d="m2100.5 219.3h-285.8c-35.3 0-64 28.7-64 64.1v133.2c0 35.4 28.7 64 64 64h2.1l-22.9 76.9c-1 3.4 2.9 6.1 5.7 3.9l105.9-80.8h195c35.4 0 64-28.6 64-64v-133.2c0-35.4-28.6-64.1-64-64.1z"/>
				<path id="&lt;Path&gt;" class="s0" d="m2008.7 331.9h-195.1c-16.1 0-29.1-13-29.1-29 0-16.1 13-29.1 29.1-29.1h195.1c16 0 29 13 29 29.1 0 16-13 29-29 29z"/>
				<path id="&lt;Path&gt;" class="s0" d="m2106.3 419.8h-283.4c-16.1 0-29.1-13-29.1-29 0-16.1 13-29.1 29.1-29.1h283.4c16.1 0 29.1 13 29.1 29.1 0 16-13 29-29.1 29z"/>
			</g>
			<g id="&lt;Group&gt;">
				<path id="&lt;Compound Path&gt;" class="s0" d="m1309.3 788.8q13.8-10.5 33.1-10.5c27.8 0 42.5 15.2 42.5 36.4 0 12.3-5.9 24.8-18 37.2-15.3 16.2-26.3 24.1-33.3 24.1-6.7 0-11.6-5.3-11.6-11.6 0-5.7 5.3-11.5 14.5-19.8 0.6-0.6 1.2-1.3 1.6-1.5 10.4-9.6 13.7-14.9 13.7-21.4 0-8.2-5.5-12.7-13.5-12.7-3.7 0-8 0.8-13.1 2.5q-7.6 2.4-11 2.4c-5.7 0-12.3-4.9-12.3-13.1 0-4.3 2.5-8.4 7.4-12zm28 136.3c-12.5 0-20.9-9.4-20.9-20.8 0-9.9 8.4-19.3 20.9-19.3 10.8 0 19.2 9.4 19.2 19.3 0 11.2-8 20.8-19.2 20.8z"/>
			</g>
			<g id="&lt;Group&gt;">
				<path id="&lt;Compound Path&gt;" fill-rule="evenodd" class="s0" d="m2459.5 575c-37.2 0-67.4-30.3-67.4-67.4 0-37.2 30.2-67.4 67.4-67.4 37.2 0 67.4 30.2 67.4 67.4 0 37.1-30.2 67.4-67.4 67.4zm0-116.2c-26.9 0-48.8 21.9-48.8 48.8 0 26.9 21.9 48.8 48.8 48.8 26.9 0 48.8-21.9 48.8-48.8 0-26.9-21.9-48.8-48.8-48.8z"/>
			</g>
			<g id="&lt;Group&gt;">
				<path id="&lt;Compound Path&gt;" fill-rule="evenodd" class="s0" d="m1098.2 496.3c-24.4 0-44.3-19.9-44.3-44.4 0-24.4 19.9-44.3 44.3-44.3 24.4 0 44.3 19.9 44.3 44.3 0 24.5-19.9 44.4-44.3 44.4zm0-76.5c-17.7 0-32.1 14.4-32.1 32.1 0 17.7 14.4 32.1 32.1 32.1 17.7 0 32.1-14.4 32.1-32.1 0-17.7-14.4-32.1-32.1-32.1z"/>
			</g>
			<g id="&lt;Group&gt;">
				<path id="&lt;Compound Path&gt;" fill-rule="evenodd" class="s0" d="m917.4 217c-19.1 0-34.7-15.6-34.7-34.7 0-19.1 15.6-34.7 34.7-34.7 19.1 0 34.7 15.6 34.7 34.7 0 19.1-15.6 34.7-34.7 34.7zm0-59.8c-13.8 0-25.1 11.3-25.1 25.1 0 13.9 11.3 25.1 25.1 25.1 13.9 0 25.1-11.2 25.1-25.1 0-13.8-11.2-25.1-25.1-25.1z"/>
			</g>
			<path id="&lt;Path&gt;" class="s1" d="m1604.1 172.7c0 26.1-21.3 47.4-47.4 47.4-26.2 0-47.4-21.3-47.4-47.4 0-26.2 21.2-47.4 47.4-47.4 26.1 0 47.4 21.2 47.4 47.4z"/>
			<path id="&lt;Path&gt;" class="s0" d="m2574.3 356.9c0 26.2-21.2 47.4-47.4 47.4-26.2 0-47.4-21.2-47.4-47.4 0-26.2 21.2-47.4 47.4-47.4 26.2 0 47.4 21.2 47.4 47.4z"/>
			<path id="&lt;Path&gt;" class="s0" d="m874.7 255.5c0 26.1-21.2 47.4-47.4 47.4-26.1 0-47.4-21.3-47.4-47.4 0-26.2 21.3-47.4 47.4-47.4 26.2 0 47.4 21.2 47.4 47.4z"/>
			<path id="&lt;Path&gt;" class="s0" d="m598.2 713.5c-15.6 15.7-41.1 15.7-56.7 0-15.7-15.7-15.7-41.1 0-56.8 15.6-15.6 41.1-15.6 56.7 0 15.7 15.7 15.7 41.1 0 56.8z"/>
			<path id="&lt;Path&gt;" class="s1" d="m278.8 905.1c0 21.3-17.2 38.5-38.4 38.5-21.3 0-38.5-17.2-38.5-38.5 0-21.2 17.2-38.4 38.5-38.4 21.2 0 38.4 17.2 38.4 38.4z"/>
			<g id="c 17 ">
				<g id="&lt;Group&gt;">
					<path id="v-2 6 " class="s3" d="m527.4 958.7h0.1l26.6 0.1 6 62.8-31.1 16.4-33.1-16.2 5.4-63z"/>
					<g id="&lt;Group&gt;">
						<g id="&lt;Group&gt;">
							<path id="&lt;Path&gt;" class="s3" d="m448.3 923.2c18.2 45.5 61.9 70.8 97.7 56.5 35.7-14.3 49.9-62.8 31.7-108.3-18.2-45.5-62-70.8-97.7-56.5-35.7 14.3-49.9 62.8-31.7 108.3z"/>
							<path id="&lt;Path&gt;" class="s5" d="m562.2 886.3c2.1 3 6.2 3.8 9.3 1.7 3-2.1 3.8-6.3 1.6-9.3-2.1-3.1-6.2-3.8-9.3-1.7-3 2.1-3.8 6.3-1.6 9.3z"/>
							<path id="&lt;Path&gt;" class="s5" d="m512 906.8c2.3 3.3 6.8 4.1 10.1 1.8 3.3-2.3 4.1-6.8 1.8-10.1-2.3-3.3-6.8-4.1-10.1-1.8-3.3 2.3-4.1 6.8-1.8 10.1z"/>
							<path id="&lt;Path&gt;" class="s6" d="m552 897c9 7.1 20.4 15.7 20.4 15.7 0 0 0.1 10.9-12.7 15.7 4.6-4.2 8.7-9.8 3.9-16.2-4.8-6.4-11.6-15.2-11.6-15.2z"/>
							<g id="&lt;Group&gt;">
								<path id="&lt;Path&gt;" class="s7" d="m498.8 902.4q-0.4 0-0.8-0.1c-1.8-0.4-2.9-2.2-2.4-4 1.1-4.9 6-14.2 16.2-14.2 1.9 0 3.4 1.4 3.4 3.3 0 1.8-1.5 3.3-3.3 3.3-7.6 0.1-9.8 9.1-9.8 9.1-0.4 1.6-1.8 2.6-3.3 2.6z"/>
							</g>
							<g id="&lt;Group&gt;">
								<path id="&lt;Path&gt;" class="s7" d="m555.1 872.1q-0.7 0-1.4-0.3c-1.3-0.8-1.7-2.5-1-3.8 0.2-0.3 3.1-5.2 8.6-6.2 3.8-0.7 7.7 0.6 11.6 3.7 1.2 1 1.4 2.7 0.5 3.9-1 1.2-2.8 1.4-4 0.4-2.6-2-5-2.9-7.1-2.5-3 0.6-4.7 3.4-4.8 3.5-0.5 0.9-1.4 1.3-2.4 1.3z"/>
							</g>
							<path id="&lt;Path&gt;" class="s7" d="m408 905.1c-11.4-45 26.6-80.3 26.6-80.3 0 0-4.9-0.5-10.2-2.7-7.1-3-4.7-13.6 3-13.5 9.3 0.1 20.4-1.6 28.6-7.8 51.5-38.6 93.4-17.9 93.4 3.5 0 7.6 47.1 12.7 30 71.5 1-3.5-18.7-38.7-29.8-40.8-11.2-2.1-1.1 12.8-24.4 16-23.5 3.2-40.8-2.5-55.2 10.7-26.6 27.5-0.5 93.5 1.2 97-3.9-8.1-50.5-3.5-63.2-53.6z"/>
							<g id="&lt;Group&gt;">
								<path id="&lt;Path&gt;" class="s3" d="m466.5 913.5c10.1 5.6 14.5 16.9 9.9 25.1-4.6 8.2-16.5 10.3-26.6 4.7-10-5.7-14.4-16.9-9.8-25.1 4.6-8.3 16.5-10.4 26.5-4.7z"/>
								<g id="&lt;Group&gt;">
									<path id="&lt;Path&gt;" class="s6" d="m465 938.1q0.5-0.3 0.8-0.8c2.8-5.2 2.3-10.4-1.2-14-3.6-3.7-9.4-4.8-13.9-2.5-1.2 0.6-1.7 2.1-1.1 3.4 0.7 1.2 2.2 1.7 3.4 1.1 2.4-1.3 5.9-0.6 8 1.5 1.9 2 2.1 4.9 0.4 8.1-0.7 1.2-0.2 2.7 1 3.4 0.8 0.4 1.9 0.3 2.6-0.2z"/>
								</g>
							</g>
							<g id="&lt;Group&gt;">
								<path id="&lt;Path&gt;" class="s6" d="m543.4 951.7q-5.8-1.4-12-4.7c-1.1-0.6-1.5-2-0.9-3 0.5-1.1 1.9-1.5 3-1 9.2 5 17.5 6.4 24.6 4.2 8.8-2.7 12.8-10 12.8-10.1 0.6-1.1 1.9-1.5 3-1 1.1 0.6 1.5 2 1 3-0.2 0.4-4.9 9.1-15.4 12.4q-7.5 2.3-16.1 0.2z"/>
							</g>
						</g>
					</g>
				</g>
				<path id="&lt;Path&gt;" class="s5" d="m576 1780.6c23.5 32.4 81.2 12.5 79.3 56.4-87.8-0.6-124.3 0-124.3 0 0.1-10.1 1.9-34 3.9-43.4z"/>
				<path id="&lt;Path&gt;" class="s5" d="m437.5 1780.6c23.5 32.4 81.3 12.5 79.3 56.4-87.8-0.6-124.3 0-124.3 0 0.1-10.1 1.9-34 3.9-43.4z"/>
				<path id="&lt;Path&gt;" class="s7" d="m616 1284.5c0 0 25.4 215.5 19.6 261.7-5.8 46.2-37.5 98-35.1 250.9-28.7 7.2-70.2 0-70.2 0 0 0-6.1-172.9 24.2-250.1-12.4-75-51.8-246.9-51.8-246.9z"/>
				<path id="&lt;Path&gt;" class="s2" d="m562.4 1290.9c0 0-28.8 233.5-42.8 277.7-14.1 44.3-35.5 77-61.1 227.7-29.4 1.5-62.9 4.7-62.9 4.7 0 0 4-191.1 49.8-234.5 1.6-76.1-7.4-274.1-7.4-274.1z"/>
				<g id="v 6 ">
					<path id="h-5 4 " class="s17" d="m423.8 1017.9c0 0 57.6-1.9 73.8-0.9 33.8 30.5 62.5-0.6 62.5-0.6 18.2-4 61.1-4 61.1-4 5.4 72.5 14.4 304.5 14.4 304.5 0 0-55.1 14.4-107.3 14.8-52.1-0.4-122.4-12.4-122.4-12.4 0 0 10.2-102 12.5-139.7-0.7-42.2 5.4-106 5.4-161.7z"/>
				</g>
				<g id="&lt;Group&gt;">
					<g id="&lt;Group&gt;">
						<path id="&lt;Path&gt;" class="s11" d="m836 1049c-0.8-4.4-2.7-8.3-5.2-11.7-19.2-35.2-73.5-21.6-151.8-7.9-13.1 2.3-8.7-14.5-10.8-49-1.4-22.5-22.3-53.3-46.1-48.6-39.3 7.9 4.7 31.2-14.9 114.4-10.4 44.4-56.4 29.9-48.3 70.8l18.6 93.2c3.1 15.9 7.8 30.9 30.8 29 22.3-1.9 20.5 14.5 51.9 8.3l157.6-31.4c16.1-3.2 26.5-18.8 23.3-34.8-1.3-6.6-4.8-12.2-9.5-16.3 7.9-6.8 12.1-17.4 10-28.2-1.4-6.6-4.9-12.2-9.6-16.3 7.9-6.8 12.2-17.4 10-28.3-1.5-7.9-6.2-14.4-12.4-18.6 5.5-6.6 8.3-15.5 6.4-24.6z"/>
						<path id="&lt;Path&gt;" class="s23" d="m737.6 1098.7l75.1-14.9c10.2-2.1 18.7-9.4 22.2-19.2 1.5-4.1-0.7-8.5-4.7-9.9-4.1-1.4-8.5 0.7-10 4.7-1.6 4.7-5.7 8.2-10.5 9.2l-76.9 15.3c-7.7 1.5-15.1-3.4-16.6-11-1.5-7.6 3.4-15 11.1-16.5l51.4-10.3c4.2-0.8 6.9-4.9 6.1-9.1-0.8-4.2-4.9-6.9-9.2-6.1l-51.4 10.2c-16 3.2-26.5 18.8-23.3 34.8 1.8 8.9 7.5 16 14.9 20-4.3 6.4-6.2 14.3-4.6 22.4 1.8 8.9 7.5 16 15 20.1-4.3 6.3-6.1 14.2-4.5 22.3 1.9 9.7 8.5 17.3 17 21.1-3.6 6-5.1 13.3-3.7 20.6 3.2 16 18.9 26.4 34.9 23.2l47.9-9.5c10.2-2.1 18.7-9.4 22.2-19.2 1.5-4-0.7-8.5-4.7-9.9-4.1-1.4-8.5 0.7-10 4.7-1.6 4.7-5.7 8.2-10.5 9.2l-47.9 9.5c-7.6 1.5-15.1-3.4-16.6-11-1.5-7.6 3.5-15 11.1-16.5l56.8-11.3c10.2-2.1 18.8-9.4 22.2-19.2 1.5-4.1-0.7-8.5-4.7-9.9-4.1-1.5-8.5 0.7-10 4.7-1.6 4.8-5.6 8.2-10.5 9.1l-61.7 12.3c-7.6 1.5-15-3.4-16.5-11-1.6-7.6 3.4-15 11-16.5l70.7-14.1c10.2-2 18.7-9.4 22.2-19.2 1.4-4-0.7-8.4-4.7-9.8-4.1-1.5-8.6 0.7-10 4.7-1.7 4.7-5.6 8.1-10.5 9.1l-72.6 14.5c-7.6 1.5-15.1-3.5-16.6-11-1.5-7.6 3.5-15.1 11.1-16.6z"/>
					</g>
					<path id="&lt;Path&gt;" class="s10" d="m587.9 1250.5l-49 9.8c-6.8 1.4-13.4-3-14.8-9.8l-29-145.8c-1.4-6.8 3.1-13.4 9.9-14.8l49-9.8c6.8-1.3 13.4 3.1 14.8 9.9l29 145.8c1.4 6.8-3.1 13.4-9.9 14.7z"/>
				</g>
				<g id="&lt;Group&gt;">
					<g id="&lt;Group&gt;">
						<g id="&lt;Group&gt;">
							<g id="&lt;Group&gt;">
								<g id="&lt;Group&gt;">
									<g id="&lt;Group&gt;">
										<path id="&lt;Path&gt;" class="s3" d="m630.4 1268.1c-10.4-0.9-22-5.9-29.9 0.6l-15.1-23.2c21.5-25.6 64.1-29.3 68.4-29.1 11.1 0.6 16.4 0.1 17 1.7 0.7 1.6 2 11.8-14.2 11.5-20.4-0.4-9.3 17.4 33.4 7.9 10.7-2.4 29.2 5.3 21.2 11.7-8.8 7.1-33.3 22.6-80.8 18.9z"/>
									</g>
								</g>
							</g>
						</g>
					</g>
					<path id="&lt;Path&gt;" class="s3" d="m416.4 1220.6c-15.6 6.6-21.4 57.7-16.6 61.3 70.5 22.6 204-14 204-14l9.8-25.9c0 0-105.1-2.3-197.2-21.4z"/>
					<path id="&lt;Path&gt;" class="s3" d="m381.8 1071.4c-7.3 46.3 6.2 198.3 18 210.5l52.3-41.2c0 0 5.3-154 5.2-180.2 0-45.3-63.9-64.6-75.5 10.9z"/>
				</g>
				<path id="c 22 " class="s3" d="m808.3 1028.9c-0.7-0.7-1.1-1.5-1.5-2.3q-0.2 0.1-0.4 0.3c-6.9 6.4-16.3 7.6-20.9 2.6q-1.2-1.3-1.8-2.8c-5.5 2.4-11.2 1.9-14.5-1.6-1.3-1.5-2.1-3.2-2.4-5.2-5.4 2.8-11.6 2.3-15.2-1.7-4.6-5-3.6-13.5 2.4-19 6-5.5 14.5-5.9 19.1-0.9 1.2 1.3 2 2.8 2.4 4.4 6.7-4.9 14.8-5.4 19-0.9 0.7 0.8 1.3 1.8 1.7 2.8 5.5-2.4 11.3-2 14.5 1.6 1.3 1.3 2 2.9 2.3 4.7 4.7-2.6 10.3-2.3 13.5 1.2 3.9 4.2 3 11.4-2.1 16.1-5 4.6-12.2 4.9-16.1 0.7z"/>
				<path id="&lt;Path&gt;" class="s18" d="m416.4 1220.6c-15.6 6.6-21.4 57.7-16.6 61.3 70.5 22.6 196.6-11.9 196.6-11.9l-9.1-35.9c0 0-78.8 5.6-170.9-13.5z"/>
				<path id="&lt;Path&gt;" class="s18" d="m380.6 1070.4c-7.7 47.3-1.6 200.8 19.2 211.5l52.7-40.2c0 0 6.2-157.1 6.2-183.8 0.2-46.1-65.7-64.7-78.1 12.5z"/>
			</g>
		</g>
	</g>
</svg>